<?xml version="1.0" encoding="utf-8"?>
<!-- Generator: Adobe Illustrator 21.1.0, SVG Export Plug-In . SVG Version: 6.00 Build 0)  -->
<svg version="1.1" id="Layer_1" xmlns="http://www.w3.org/2000/svg" xmlns:xlink="http://www.w3.org/1999/xlink" x="0px" y="0px"
	 viewBox="0 0 81.5 65" style="enable-background:new 0 0 81.5 65;" xml:space="preserve">
<style type="text/css">
	.st0{fill:url(#SVGID_1_);}
	.st1{fill:url(#SVGID_2_);}
	.st2{fill:#FFFFFF;}
</style>
<g>
	<g>
		
			<linearGradient id="SVGID_1_" gradientUnits="userSpaceOnUse" x1="17.1884" y1="34.55" x2="64.3145" y2="34.55" gradientTransform="matrix(1 0 0 -1 0 66)">
			<stop  offset="0" style="stop-color:#6C5E6A;stop-opacity:0.2"/>
			<stop  offset="1" style="stop-color:#923D88;stop-opacity:0"/>
		</linearGradient>
		<path class="st0" d="M63.3,29.3l-7.6,7.4c0,0,0,0,0,0.1c-1.2-0.6-2.5-1.1-3.9-1.5c-2-0.6-4.3-1.1-6.7-1.4c-0.2,0-0.5,0-0.7,0
			c-1.9,0-3.7,0.9-4.8,2.4c-1.6,1.2-2.5,3.1-2.4,5.2c0.1,2.4,0.4,4.7,0.9,6.7c0.1,0.4,0.2,0.7,0.3,1L30,53.6c-0.5,0.3-1,0.4-1.5,0.4
			c-1.9,0-3.6-1.7-3.3-3.9L27,39.6c0.2-1.1-0.2-2.2-1-2.9l-7.6-7.4c-2-1.9-0.9-5.3,1.8-5.7l10.5-1.5c1.1-0.2,2-0.8,2.5-1.8l4.7-9.5
			c0.6-1.2,1.8-1.9,3-1.9s2.4,0.6,3,1.9l4.7,9.5c0.5,1,1.4,1.7,2.5,1.8l10.5,1.5C64.2,24.1,65.3,27.4,63.3,29.3z"/>
	</g>
	<g>
		<g>
			
				<linearGradient id="SVGID_2_" gradientUnits="userSpaceOnUse" x1="10.2007" y1="33.45" x2="71.295" y2="33.45" gradientTransform="matrix(1 0 0 -1 0 66)">
				<stop  offset="0" style="stop-color:#923D88"/>
				<stop  offset="1" style="stop-color:#6C5E6A"/>
			</linearGradient>
			<path class="st1" d="M70.8,23.8c-1.2-3.8-4.4-6.5-8.3-7l-8.6-1.2L50,7.7c-1.8-3.6-5.3-5.8-9.3-5.8s-7.5,2.2-9.3,5.8l-3.9,7.8
				L19,16.7c-3.9,0.6-7.1,3.3-8.3,7c-1.2,3.8-0.2,7.8,2.6,10.6l6.2,6.1L18.1,49c-0.5,3,0.3,6.1,2.3,8.4c2,2.3,4.9,3.7,7.9,3.7
				c1.7,0,3.3-0.4,4.8-1.2l7.7-4L41,56c0.7,1.1,1.5,2.1,2.3,3c1.8,1.8,3.8,3,6,3.7c0.4,0.1,0.8,0.2,1.2,0.3c0.6,0.1,1.1,0.2,1.5,0.2
				c0.1,0,0.2,0,0.3,0h0.1c3,0,6-1.2,8.4-3.4l0,0c0.1-0.1,0.2-0.2,0.3-0.2c0.2-0.2,0.3-0.3,0.5-0.5l0,0c0.3-0.3,0.5-0.5,0.7-0.7l0,0
				l0,0c1.9-2.2,2.9-4.6,3.2-7.3c0-0.1,0-0.3,0-0.4c0-0.5,0-1-0.1-1.5c0-0.4-0.1-0.8-0.2-1.2c-0.5-2.3-1.5-4.4-3.2-6.2l-0.2-1
				l6.2-6.1C71,31.6,72,27.5,70.8,23.8z M57.8,54.2L57.8,54.2c-0.2,0.2-0.3,0.3-0.4,0.5c-0.1,0.1-0.2,0.2-0.3,0.3
				c-0.1,0-0.1,0.1-0.2,0.1C55.5,56.4,54,57,52.4,57c-0.3,0-0.5-0.1-0.8-0.1c-0.2,0-0.4-0.1-0.6-0.1c-1.2-0.3-2.3-1-3.3-2
				c-0.9-1-1.7-2.1-2.3-3.5c-0.2-0.4-0.4-0.8-0.5-1.2c-0.4-1-0.7-2.1-1-3.2c-0.4-1.8-0.6-3.8-0.7-5.7l6.7,7.3c0,0.1-0.1,0.1-0.1,0.2
				c-0.5,1.2,0.1,2.5,1.3,3c0.3,0.1,0.6,0.2,0.8,0.2c0.9,0,1.8-0.6,2.2-1.5c0.5-1.2-0.1-2.5-1.3-3c-0.3-0.1-0.5-0.2-0.8-0.2
				s-0.6,0.1-0.9,0.2L44.3,40c1.9,0.2,3.9,0.6,5.7,1.1c1.5,0.5,3,1.1,4.3,1.8c0.4,0.2,0.8,0.4,1.1,0.7c0.8,0.5,1.6,1.2,2.2,1.9
				c1,1.1,1.6,2.2,1.8,3.4c0,0.2,0.1,0.4,0.1,0.6c0,0.3,0,0.5,0,0.8C59.4,51.7,58.8,53,57.8,54.2z M63.3,29.3l-7.6,7.4
				c0,0,0,0,0,0.1c-1.2-0.6-2.5-1.1-3.9-1.5c-2-0.6-4.3-1.1-6.7-1.4c-0.2,0-0.5,0-0.7,0c-1.9,0-3.7,0.9-4.8,2.4
				c-1.6,1.2-2.5,3.1-2.4,5.2c0.1,2.4,0.4,4.7,0.9,6.7c0.1,0.4,0.2,0.7,0.3,1L30,53.6c-0.5,0.3-1,0.4-1.5,0.4
				c-1.9,0-3.6-1.7-3.3-3.9L27,39.6c0.2-1.1-0.2-2.2-1-2.9l-7.6-7.4c-2-1.9-0.9-5.3,1.8-5.7l10.5-1.5c1.1-0.2,2-0.8,2.5-1.8l4.7-9.5
				c0.6-1.2,1.8-1.9,3-1.9s2.4,0.6,3,1.9l4.7,9.5c0.5,1,1.4,1.7,2.5,1.8l10.5,1.5C64.2,24.1,65.3,27.4,63.3,29.3z"/>
			<path class="st2" d="M59.5,50.3c-0.1,1.4-0.7,2.7-1.7,3.9l0,0c-0.1,0.2-0.3,0.3-0.4,0.4c-0.1,0.1-0.2,0.2-0.3,0.3
				s-0.1,0.2-0.2,0.2C55.5,56.4,54,57,52.4,57c-0.3,0-0.5-0.1-0.8-0.1c-0.2,0-0.4-0.1-0.6-0.1c-1.2-0.3-2.3-1-3.3-2
				c-0.9-1-1.7-2.1-2.3-3.5c-0.2-0.4-0.4-0.8-0.5-1.2c-0.4-1-0.7-2.1-1-3.2c-0.4-1.8-0.6-3.8-0.7-5.7l6.7,7.3c0,0.1-0.1,0.1-0.1,0.2
				c-0.5,1.2,0.1,2.5,1.3,3c0.3,0.1,0.6,0.2,0.8,0.2c0.9,0,1.8-0.6,2.2-1.5c0.5-1.2-0.1-2.5-1.3-3c-0.3-0.1-0.5-0.2-0.8-0.2
				s-0.6,0.1-0.9,0.2L44.3,40c1.9,0.2,3.9,0.6,5.7,1.1c1.5,0.5,3,1.1,4.3,1.8c0.4,0.2,0.8,0.4,1.1,0.7c0.8,0.5,1.6,1.2,2.2,1.9
				c1,1.1,1.6,2.2,1.8,3.4c0,0.2,0.1,0.4,0.1,0.6C59.5,49.8,59.5,50.1,59.5,50.3z"/>
		</g>
	</g>
</g>
</svg>
