<?xml version="1.0" encoding="utf-8"?>
<!-- Generator: Adobe Illustrator 16.0.0, SVG Export Plug-In . SVG Version: 6.00 Build 0)  -->
<!DOCTYPE svg PUBLIC "-//W3C//DTD SVG 1.1//EN" "http://www.w3.org/Graphics/SVG/1.1/DTD/svg11.dtd">
<svg version="1.1" id="Layer_1" xmlns="http://www.w3.org/2000/svg" xmlns:xlink="http://www.w3.org/1999/xlink" x="0px" y="0px"
	 width="76.781px" height="76.583px" viewBox="0 0 76.781 76.583" enable-background="new 0 0 76.781 76.583" xml:space="preserve">
<g>
	<g>
		<g>
			<path d="M71.134,47.459l4.562,1.973c-0.438-7.208-1.19-15.603-1.539-19.21c-0.295-3.846,0.742-11.636,0-15.481
				c-0.592-3.698-1.811-13.352-1.811-13.352c-1.33,0-2.662,0-3.846,0c-4.438,0-16.895,0.808-30.334,1.63
				C24.724,3.84,22.88,1.389,6.511,1.389c-0.336,0-3.742-0.058-4.079-0.058C1.667,9.82,1.991,74.887,1.991,74.887
				s-1.516,0,2.033,0.295c7.543,0.441,16.009-1.485,23.402-0.305c7.395,1.181,17.001-0.789,24.54-0.789
				c3.845,0,22.191-0.195,22.191-0.195s0.702-3,1.442-6.105c0.321-1.461,0.443-3.07,0.439-6.119l-10.271-5.814
				C69.343,51.156,71.134,47.459,71.134,47.459z"/>
		</g>
	</g>
	<g>
		<g>
			<path fill="#ED1C24" d="M67.265,45.164c-1.037-2.06-1.913-3.935-2.95-5.99c-0.015-0.094-0.438-0.063-0.524-0.131
				c-0.07-0.081-0.084-0.045-0.176-0.056c-4.072-1.873-9.484-2.482-13.908-2.838c-0.416-0.034-2.938-1.046-0.354,0.848
				c2.805,2.244,5.564,4.541,8.452,6.682c0.129,0.096,0.374,0.094,0.505,0c-2.475,1.764-0.646,2.458-3.334,0.207
				c-2.305-1.927-4.417-4.072-6.734-5.984c-0.438-0.361-1.035,0.079-0.781,0.603c1.242,2.568,2.586,5.08,4,7.557
				c0.756,1.332,1.994,4.514,3.332,5.295c1.119,0.655,6.041,2.178,7.287,1.41C63.528,51.872,68.251,47.125,67.265,45.164z"/>
			<path fill="#FFFFFF" d="M66.12,37.023l-22.136-3.201l8.785,19.488c0.147,0.351,10.354,2.096,10.354,2.096
				c0.638-0.256,1.201-0.672,1.657-1.293c1.757-2.379,5.47-8.205,5.47-8.205L66.12,37.023z M64.587,49.457
				c-0.937,1.241-1.42,2.521-2.539,3.003c-0.59,0.255-5.844-0.964-7.373-1.344l-7.116-13.217c0,0,5.25,4.958,8.25,7.325
				c-0.032,0.258-0.037,0.52,0.017,0.787c0.159,0.787,0.883,1.35,1.622,1.547c1.416,0.375,2.478-0.806,2.763-2.08
				c0.224-0.996-0.147-1.869-1.014-2.429c-0.556-0.36-1.14-0.392-1.667-0.204c-2.792-2.076-5.734-4.328-8.4-6.444
				c0,0,14.833,2.962,14.888,2.966l3.249,6.334C67.21,47.065,65.626,48.071,64.587,49.457z"/>
		</g>
		<path fill="#ED1C24" d="M75.704,51.312l-3.852-1.767c-0.878,2.913-3.565,6.025-3.565,6.025l7.542,3.95L75.704,51.312z"/>
	</g>
	<g>
		<path fill="none" d="M6.463,28.183v1.638v0.016v0.138c0.285,0.136,0.568,0.284,0.849,0.436h1.38v-0.693v-1.534H6.905L6.463,28.183
			L6.463,28.183z"/>
		<path fill="none" d="M38.775,53.454c-0.067-0.035-0.132-0.074-0.199-0.107c-0.038-0.021-0.076-0.035-0.115-0.057h-1.915v2.229
			h2.229V53.454L38.775,53.454z"/>
		<path fill="none" d="M11.456,63.773h-0.763V66h2.228v-0.26V63.87c-0.032-0.035-0.066-0.064-0.097-0.097H11.456z"/>
		<path fill="none" d="M45.46,27.494c0.028,0.055,0.058,0.112,0.084,0.168h2.144v-1.254v-0.234v-0.74h-2.229L45.46,27.494
			L45.46,27.494z"/>
		<path fill="none" d="M28.057,23.066c-0.141,0.036-0.282,0.073-0.425,0.107v2.122h0.943h1.287v-2.229h-1.356H28.057z"/>
		<path fill="none" d="M36.546,8.72h1.02c0.089-0.008,0.176-0.007,0.264,0h0.947V6.491h-2.229V8.72H36.546z"/>
		<rect x="21.538" y="39.487" fill="none" width="2.23" height="2.227"/>
		<polygon fill="none" points="59.414,65.685 58.355,65.685 57.186,65.685 57.186,67.049 57.186,67.913 59.414,67.913 		"/>
	</g>
	<rect x="21.538" y="39.487" fill="none" width="2.23" height="2.227"/>
	<path fill="none" d="M28.057,23.066c-0.141,0.036-0.282,0.073-0.425,0.107v2.122h0.943h1.287v-2.229h-1.356H28.057z"/>
	<path fill="none" d="M38.775,53.454c-0.067-0.035-0.132-0.074-0.199-0.107c-0.038-0.021-0.076-0.035-0.115-0.057h-1.915v2.229
		h2.229V53.454L38.775,53.454z"/>
	<polygon fill="none" points="59.414,65.685 58.355,65.685 57.186,65.685 57.186,67.049 57.186,67.913 59.414,67.913 	"/>
	<path fill="none" d="M11.456,63.773h-0.763V66h2.228v-0.26V63.87c-0.032-0.035-0.066-0.064-0.097-0.097H11.456z"/>
	<path fill="none" d="M36.546,8.72h1.02c0.089-0.008,0.176-0.007,0.264,0h0.947V6.491h-2.229V8.72H36.546z"/>
	<path fill="none" d="M45.46,27.494c0.028,0.055,0.058,0.112,0.084,0.168h2.144v-1.254v-0.234v-0.74h-2.229L45.46,27.494
		L45.46,27.494z"/>
	<g>
		<rect x="21.538" y="39.487" fill="none" width="2.23" height="2.227"/>
		<path fill="none" d="M38.776,55.518v-2.064c-0.068-0.035-0.13-0.074-0.199-0.107c-0.037-0.023-0.077-0.035-0.115-0.057h-1.916
			l0.001,2.229H38.776z"/>
		<polygon fill="none" points="57.188,67.913 59.416,67.913 59.416,65.685 58.357,65.685 57.186,65.685 57.186,67.049 
			57.188,67.049 		"/>
		<polygon fill="none" points="6.464,28.183 6.464,29.821 6.464,29.837 6.464,30.412 7.313,30.412 8.691,30.412 8.691,29.718 
			8.693,29.718 8.693,28.183 6.907,28.183 		"/>
		<path fill="none" d="M11.456,63.77h-0.763v2.229h2.23v-0.258l0.001-1.871c-0.033-0.035-0.066-0.065-0.098-0.1H11.456z"/>
		<path fill="none" d="M36.545,6.491V8.72h1.02c0.088-0.008,0.176-0.007,0.264,0h0.946l-0.001-2.229H36.545z"/>
		<path fill="none" d="M45.46,27.495c0.024,0.055,0.058,0.11,0.084,0.167h2.146v-1.254v-0.234v-0.74H45.46V27.495z"/>
		<path fill="none" d="M28.503,23.068h-0.446c-0.142,0.034-0.283,0.071-0.425,0.106v2.121h0.943h1.287l-0.002-2.227H28.503z"/>
		<path fill="#FFFFFF" d="M72.226,27.59c-0.007-0.101-0.026-0.198-0.059-0.29c-0.02-0.054-0.044-0.104-0.07-0.154
			c-0.188-0.351-0.545-0.597-0.97-0.597h-2.149h-0.162h-2.149c-0.425,0-0.782,0.247-0.97,0.597c-0.026,0.05-0.051,0.101-0.07,0.154
			c-0.032,0.092-0.052,0.189-0.059,0.29c-0.002,0.024-0.011,0.047-0.011,0.071v0.325c-5.593-0.647-12.729-1.446-15.641-1.656V24.32
			c0-0.616-0.499-1.114-1.113-1.114h-2.312c-2.238-4.086-4.479-8.171-6.718-12.257h0.117c0.613,0,1.112-0.499,1.112-1.114V5.377
			c0-0.617-0.499-1.114-1.112-1.114h-4.459c-0.613,0-1.113,0.498-1.113,1.114v4.457c0,0.616,0.5,1.114,1.113,1.114h0.008
			c-1.951,3.243-3.663,6.626-5.578,9.89h-3.343c-0.614,0-1.113,0.498-1.113,1.115v1.783c-4.796,1.196-9.705,2.301-14.609,2.835
			c-0.184-0.364-0.557-0.614-0.991-0.614H5.348c-0.615,0-1.115,0.498-1.115,1.115v4.456c0,0.616,0.5,1.115,1.115,1.115h4.457
			c0.238,0,0.458-0.079,0.639-0.204c2.258,1.658,4.382,3.586,6.483,5.231c0.783,0.614,1.572,1.185,2.382,1.727v3.434
			c0,0.605,0.488,1.101,1.093,1.11c-0.116,0.257-0.205,0.447-0.236,0.522c-2.372,5.77-5.029,11.433-7.683,17.08H9.58
			c-0.615,0-1.114,0.498-1.114,1.115v4.457c0,0.615,0.5,1.111,1.114,1.111h4.457c0.614,0,1.116-0.496,1.116-1.111v-2.313
			c5.702-2.77,11.41-5.618,17.336-7.842c0.649-0.239,1.249-0.516,1.83-0.732v0.4c0,0.615,0.5,1.113,1.113,1.113h4.46
			c0.113,0,0.226-0.021,0.33-0.055c1.209,0.732,2.406,1.493,3.604,2.244c1.81,1.132,3.604,2.29,5.446,3.365
			c1.844,1.068,3.664,2.5,5.686,3.291v2.437c0,0.616,0.498,1.113,1.111,1.113h4.457c0.615,0,1.113-0.497,1.113-1.113v-4.458
			c0-0.615-0.498-1.113-1.113-1.113h-1.855c-0.104-2.119-0.563-9.85-0.563-9.85l-3.031-0.627l0.75,10.564
			c-1.836-0.835-4.047-2.195-5.703-3.176c-1.994-1.183-3.941-2.447-5.911-3.675c-1.065-0.666-2.128-1.333-3.209-1.974v-2.541
			c0-0.616-0.499-1.114-1.108-1.114h-4.463c-0.613,0-1.111,0.498-1.111,1.114v0.955c-0.442,0.136-0.892,0.3-1.357,0.479
			c-5.806,2.232-11.438,4.868-17.045,7.559c2.677-5.684,5.335-11.389,7.625-17.223h1.339c0.615,0,1.116-0.498,1.116-1.113v-4.458
			c0-0.616-0.5-1.114-1.116-1.114h-3.271c-0.723-0.423-1.463-0.816-2.073-1.277c-2.664-2.017-5.3-4.51-8.15-6.509
			c4.727-0.538,9.452-1.565,14.08-2.704c0.148,0.44,0.563,0.757,1.051,0.757h4.454c0.615,0,1.114-0.498,1.114-1.114v-3.522
			c1.921-3.207,3.61-6.546,5.504-9.768c1.938,3.536,3.875,7.07,5.813,10.605c-0.107,0.173-0.174,0.375-0.174,0.591v4.457
			c0,0.617,0.5,1.114,1.11,1.114h4.46c0.4,0,0.745-0.213,0.943-0.529c0.446,0,12.339,1.145,15.811,1.527v0.791
			c-1.834,1.347-5.874,4.29-6.79,4.842c1.686,0.394,3.107,0.589,3.5,0.68c0.721-0.541,2.937-2.242,5.179-3.968h3.681
			c0.136,0,0.264-0.033,0.385-0.078c0.028-0.011,0.057-0.022,0.085-0.035c0.111-0.053,0.217-0.12,0.305-0.206
			c0.012-0.012,0.021-0.027,0.032-0.039c0.185-0.199,0.304-0.461,0.304-0.756v-2.578v-0.77v-1.11
			C72.236,27.637,72.228,27.615,72.226,27.59z M8.693,29.718H8.691v0.694H7.313H6.464v-0.575v-0.016v-1.638h0.443h1.786V29.718z
			 M12.923,65.741v0.258h-2.23V63.77h0.763h1.37c0.032,0.034,0.065,0.064,0.098,0.1L12.923,65.741z M57.186,65.685h1.172h1.059
			v2.228h-2.229v-0.863h-0.002V65.685z M38.462,53.29c0.038,0.021,0.078,0.033,0.115,0.057c0.069,0.033,0.131,0.072,0.199,0.107
			v2.064h-2.229l-0.001-2.229H38.462z M21.538,39.487h2.23v2.227h-2.23V39.487z M28.575,25.295h-0.943v-2.121
			c0.142-0.035,0.283-0.072,0.425-0.106h0.446h1.357l0.002,2.227H28.575z M37.829,8.72c-0.088-0.007-0.176-0.008-0.264,0h-1.02
			V6.491h2.229l0.001,2.229H37.829z M47.689,26.174v0.234v1.254h-2.146c-0.026-0.057-0.06-0.112-0.084-0.167v-2.061h2.229V26.174z
			 M70.014,29.517v0.234v1.254h-0.089h-2.057h-0.089v-1.254v-0.234v-0.74h0.005h2.225h0.005V29.517z"/>
	</g>
</g>
</svg>
