<?xml version="1.0" encoding="utf-8"?>
<!-- Generator: Adobe Illustrator 21.1.0, SVG Export Plug-In . SVG Version: 6.00 Build 0)  -->
<svg version="1.1" id="Layer_1" xmlns="http://www.w3.org/2000/svg" xmlns:xlink="http://www.w3.org/1999/xlink" x="0px" y="0px"
	 viewBox="0 0 50 40" style="enable-background:new 0 0 50 40;" xml:space="preserve">
<style type="text/css">
	.st0{fill:url(#SVGID_1_);}
	.st1{fill:url(#SVGID_2_);}
	.st2{fill:#FFFFFF;}
</style>
<g>
	<g>
		
			<linearGradient id="SVGID_1_" gradientUnits="userSpaceOnUse" x1="10.8643" y1="721.34" x2="39.14" y2="721.34" gradientTransform="matrix(1 0 0 1 0 -702)">
			<stop  offset="0" style="stop-color:#6C5E6A;stop-opacity:0.2"/>
			<stop  offset="1" style="stop-color:#923D88;stop-opacity:0"/>
		</linearGradient>
		<path class="st0" d="M38.5,18L34,22.5c0,0,0,0,0,0.1c-0.7-0.4-1.5-0.7-2.3-0.9c-1.2-0.4-2.6-0.7-4-0.8c-0.1,0-0.3,0-0.4,0
			c-1.1,0-2.2,0.5-2.9,1.4c-1,0.7-1.5,1.9-1.4,3.1c0.1,1.4,0.2,2.8,0.5,4c0.1,0.2,0.1,0.4,0.2,0.6l-5,2.6c-0.3,0.2-0.6,0.2-0.9,0.2
			c-1.1,0-2.2-1-2-2.3l1.1-6.3c0.1-0.7-0.1-1.3-0.6-1.7L11.6,18c-1.2-1.1-0.5-3.2,1.1-3.4l6.3-0.9c0.7-0.1,1.2-0.5,1.5-1.1l2.8-5.7
			c0.4-0.7,1.1-1.1,1.8-1.1s1.4,0.4,1.8,1.1l2.8,5.7c0.3,0.6,0.8,1,1.5,1.1l6.3,0.9C39.1,14.9,39.7,16.9,38.5,18z"/>
	</g>
	<g>
		<g>
			
				<linearGradient id="SVGID_2_" gradientUnits="userSpaceOnUse" x1="6.6717" y1="722" x2="43.3283" y2="722" gradientTransform="matrix(1 0 0 1 0 -702)">
				<stop  offset="0" style="stop-color:#923D88"/>
				<stop  offset="1" style="stop-color:#6C5E6A"/>
			</linearGradient>
			<path class="st1" d="M43,14.7c-0.7-2.3-2.6-3.9-5-4.2l-5.2-0.7l-2.3-4.7c-1.1-2.2-3.2-3.5-5.6-3.5s-4.5,1.3-5.6,3.5l-2.3,4.7
				L12,10.5c-2.3,0.4-4.3,2-5,4.2c-0.7,2.3-0.1,4.7,1.6,6.4l3.7,3.7l-0.8,5.2c-0.3,1.8,0.2,3.7,1.4,5s2.9,2.2,4.7,2.2
				c1,0,2-0.2,2.9-0.7L25,34l0.1,0.1c0.4,0.7,0.9,1.3,1.4,1.8c1.1,1.1,2.3,1.8,3.6,2.2c0.2,0.1,0.5,0.1,0.7,0.2
				c0.4,0.1,0.7,0.1,0.9,0.1c0.1,0,0.1,0,0.2,0H32c1.8,0,3.6-0.7,5-2l0,0c0.1-0.1,0.1-0.1,0.2-0.1c0.1-0.1,0.2-0.2,0.3-0.3l0,0
				c0.2-0.2,0.3-0.3,0.4-0.4l0,0l0,0c1.1-1.3,1.7-2.8,1.9-4.4c0-0.1,0-0.2,0-0.2c0-0.3,0-0.6-0.1-0.9c0-0.2-0.1-0.5-0.1-0.7
				c-0.3-1.4-0.9-2.6-1.9-3.7l-0.1-0.6l3.7-3.7C43.2,19.4,43.8,17,43,14.7z M35.2,33L35.2,33c-0.1,0.1-0.2,0.2-0.2,0.3
				c-0.1,0.1-0.1,0.1-0.2,0.2c-0.1,0-0.1,0.1-0.1,0.1c-0.8,0.8-1.7,1.1-2.7,1.1c-0.2,0-0.3-0.1-0.5-0.1c-0.1,0-0.2-0.1-0.4-0.1
				c-0.7-0.2-1.4-0.6-2-1.2c-0.5-0.6-1-1.3-1.4-2.1c-0.1-0.2-0.2-0.5-0.3-0.7c-0.2-0.6-0.4-1.3-0.6-1.9c-0.2-1.1-0.4-2.3-0.4-3.4
				l4,4.4c0,0.1-0.1,0.1-0.1,0.1c-0.3,0.7,0.1,1.5,0.8,1.8c0.2,0.1,0.4,0.1,0.5,0.1c0.5,0,1.1-0.4,1.3-0.9c0.3-0.7-0.1-1.5-0.8-1.8
				c-0.2-0.1-0.3-0.1-0.5-0.1c-0.2,0-0.4,0.1-0.5,0.1l-4.1-4.4c1.1,0.1,2.3,0.4,3.4,0.7c0.9,0.3,1.8,0.7,2.6,1.1
				c0.2,0.1,0.5,0.2,0.7,0.4c0.5,0.3,1,0.7,1.3,1.1c0.6,0.7,1,1.3,1.1,2c0,0.1,0.1,0.2,0.1,0.4c0,0.2,0,0.3,0,0.5
				C36.2,31.5,35.8,32.3,35.2,33z M38.5,18L34,22.5c0,0,0,0,0,0.1c-0.7-0.4-1.5-0.7-2.3-0.9c-1.2-0.4-2.6-0.7-4-0.8
				c-0.1,0-0.3,0-0.4,0c-1.1,0-2.2,0.5-2.9,1.4c-1,0.7-1.5,1.9-1.4,3.1c0.1,1.4,0.2,2.8,0.5,4c0.1,0.2,0.1,0.4,0.2,0.6l-5,2.6
				c-0.3,0.2-0.6,0.2-0.9,0.2c-1.1,0-2.2-1-2-2.3l1.1-6.3c0.1-0.7-0.1-1.3-0.6-1.7L11.6,18c-1.2-1.1-0.5-3.2,1.1-3.4l6.3-0.9
				c0.7-0.1,1.2-0.5,1.5-1.1l2.8-5.7c0.4-0.7,1.1-1.1,1.8-1.1s1.4,0.4,1.8,1.1l2.8,5.7c0.3,0.6,0.8,1,1.5,1.1l6.3,0.9
				C39.1,14.9,39.7,16.9,38.5,18z"/>
			<path class="st2" d="M36.3,30.6c-0.1,0.8-0.4,1.6-1,2.3l0,0c-0.1,0.1-0.2,0.2-0.2,0.2c-0.1,0.1-0.1,0.1-0.2,0.2
				c-0.1,0.1-0.1,0.1-0.1,0.1c-0.8,0.8-1.7,1.1-2.7,1.1c-0.2,0-0.3-0.1-0.5-0.1c-0.1,0-0.2-0.1-0.4-0.1c-0.7-0.2-1.4-0.6-2-1.2
				c-0.5-0.6-1-1.3-1.4-2.1c-0.1-0.2-0.2-0.5-0.3-0.7c-0.2-0.6-0.4-1.3-0.6-1.9c-0.2-1.1-0.4-2.3-0.4-3.4l4,4.4
				c0,0.1-0.1,0.1-0.1,0.1c-0.3,0.7,0.1,1.5,0.8,1.8c0.2,0.1,0.4,0.1,0.5,0.1c0.5,0,1.1-0.4,1.3-0.9c0.3-0.7-0.1-1.5-0.8-1.8
				c-0.2-0.1-0.3-0.1-0.5-0.1c-0.2,0-0.4,0.1-0.5,0.1l-4.1-4.4c1.1,0.1,2.3,0.4,3.4,0.7c0.9,0.3,1.8,0.7,2.6,1.1
				c0.2,0.1,0.5,0.2,0.7,0.4c0.5,0.3,1,0.7,1.3,1.1c0.6,0.7,1,1.3,1.1,2c0,0.1,0.1,0.2,0.1,0.4C36.3,30.3,36.3,30.5,36.3,30.6z"/>
		</g>
	</g>
</g>
</svg>
