<?xml version="1.0" encoding="utf-8"?>
<!-- Generator: Adobe Illustrator 21.1.0, SVG Export Plug-In . SVG Version: 6.00 Build 0)  -->
<svg version="1.1" id="Layer_1" xmlns="http://www.w3.org/2000/svg" xmlns:xlink="http://www.w3.org/1999/xlink" x="0px" y="0px"
	 viewBox="0 0 500 500" style="enable-background:new 0 0 500 500;" xml:space="preserve">
<style type="text/css">
	.st0{clip-path:url(#SVGID_2_);}
	.st1{fill:url(#SVGID_3_);}
	.st2{clip-path:url(#SVGID_6_);}
	.st3{fill:url(#SVGID_7_);}
	.st4{clip-path:url(#SVGID_9_);}
	.st5{fill:#FFFFFF;}
	.st6{fill:url(#SVGID_10_);}
	.st7{opacity:0.78;clip-path:url(#SVGID_2_);}
	.st8{clip-path:url(#SVGID_12_);}
	.st9{fill:url(#SVGID_13_);}
</style>
<g id="BACKGROUND">
</g>
<g id="DESIGNED_BY_FREEPIK">
</g>
<g>
	<defs>
		<path id="SVGID_1_" d="M459.9,266.4c-26.2-41.7,11.6-83.1-39.8-125.2c-4.8-3.9-11.2-6.5-18.4-8.5c-37.4-44.3-93.4-72.5-155.9-72.5
			C141,60.2,54.6,139.3,43.2,241.1c-14.1,16-8.7,36.1,0.9,52.8c1.8,12.3,4.7,24.3,8.6,35.9c37.8-3.9,72.2-1.6,102.2,3.8
			c19.2,3.5,36.6,8.2,52,13.5h0c20.3,6.9,37.2,14.7,50.2,21.6c10.8-6.9,22.1-13,33.5-18.2c15.2-7,30.7-12.6,45.8-17.2
			c7.8-2.4,15.6-4.5,23.1-6.3c35.8-8.7,67.3-11.7,83.9-12.7c0.4,0,0.8-0.1,1.1-0.1h0C459.3,301.3,469.8,282.2,459.9,266.4z"/>
	</defs>
	<clipPath id="SVGID_2_">
		<use xlink:href="#SVGID_1_"  style="overflow:visible;"/>
	</clipPath>
	<g class="st0">
		
			<linearGradient id="SVGID_3_" gradientUnits="userSpaceOnUse" x1="42.6" y1="275.3" x2="450.3" y2="275.3" gradientTransform="matrix(1 0 0 -1 0 500)">
			<stop  offset="0" style="stop-color:#9B2DBD"/>
			<stop  offset="0.2892" style="stop-color:#992EBD"/>
			<stop  offset="0.4482" style="stop-color:#9131BB"/>
			<stop  offset="0.5756" style="stop-color:#8336B8"/>
			<stop  offset="0.6863" style="stop-color:#6F3DB5"/>
			<stop  offset="0.7861" style="stop-color:#5646B0"/>
			<stop  offset="0.8781" style="stop-color:#3752AA"/>
			<stop  offset="0.9624" style="stop-color:#135FA4"/>
			<stop  offset="1" style="stop-color:#0066A0"/>
		</linearGradient>
		<path class="st1" d="M407.4,389.2c26.9-34.5,42.9-78,42.9-125.1c0-112.6-91.3-203.9-203.9-203.9C133.9,60.2,42.6,151.4,42.6,264
			c0,47.2,16,90.6,42.9,125.1h321.9V389.2z"/>
	</g>
	<g class="st0">
		<g>
			<defs>
				<path id="SVGID_5_" d="M426.9,243c-3.3-8.1-7.6-16.1-12.8-23.8c-3.2-4.7-6.3-9.3-9.2-14c-21.6-15.8-50.9-24-50.9-56.7
					c0-23-19-48.6-48.5-60c-19.4-3.7-40.1-4-59.3-1.3c-34.4,12.9-58.5,48.3-77.2,65.9c-13,12.2-28.1,15.4-44.1,22.5
					c-0.4,0.4-0.8,0.8-1.2,1.2c-13.8,13.7-30.2,26-44.2,39.9c-13.9,34.4,21.4,72.9,21.4,72.9s88.8,22.6,102.6,26.6l8.8,0.2
					c39.1-3.4,210.1-32.5,210.1-32.5C424.3,270.6,427.7,256.4,426.9,243z"/>
			</defs>
			<clipPath id="SVGID_6_">
				<use xlink:href="#SVGID_5_"  style="overflow:visible;"/>
			</clipPath>
			<g class="st2">
				
					<image style="overflow:visible;enable-background:new    ;" width="441" height="315" xlink:href="D032DDBB.png"  transform="matrix(0.9977 0 0 0.9968 27.9009 46.3341)">
				</image>
			</g>
		</g>
	</g>
	<g class="st0">
		<g>
			
				<linearGradient id="SVGID_7_" gradientUnits="userSpaceOnUse" x1="35.2585" y1="301.4062" x2="464.405" y2="301.4062" gradientTransform="matrix(1 0 0 -1 0 500)">
				<stop  offset="0" style="stop-color:#632B8F"/>
				<stop  offset="0.194" style="stop-color:#5F2E90"/>
				<stop  offset="0.3978" style="stop-color:#523592"/>
				<stop  offset="0.6063" style="stop-color:#3D4295"/>
				<stop  offset="0.8165" style="stop-color:#20539B"/>
				<stop  offset="1" style="stop-color:#0066A0"/>
			</linearGradient>
			<path id="SVGID_4_" class="st3" d="M71.3,326.7c0,0-65.5-59.3-19.9-92.4c35.4-25.7,34.3-77.8,52.6-96
				c23-22.9,61.5-21.3,89.5-37.7c8.1-4.8,80.5-72.3,146.2,12c18.9,18.4,62.2,13.2,81,28.6c51.4,42.1,13.6,83.5,39.8,125.2
				c14.8,23.4-15.7,54.2-37.5,60.3H71.3z"/>
		</g>
		<g>
			<defs>
				<path id="SVGID_8_" d="M71.3,326.7c0,0-65.5-59.3-19.9-92.4c35.4-25.7,34.3-77.8,52.6-96c23-22.9,61.5-21.3,89.5-37.7
					c8.1-4.8,80.5-72.3,146.2,12c18.9,18.4,62.2,13.2,81,28.6c51.4,42.1,13.6,83.5,39.8,125.2c14.8,23.4-15.7,54.2-37.5,60.3H71.3z"
					/>
			</defs>
			<clipPath id="SVGID_9_">
				<use xlink:href="#SVGID_8_"  style="overflow:visible;"/>
			</clipPath>
			<g class="st4">
				
					<image style="overflow:visible;enable-background:new    ;" width="467" height="320" xlink:href="D032DDB9.png"  transform="matrix(0.9979 0 0 0.9969 5.9009 49.3341)">
				</image>
			</g>
		</g>
	</g>
	<g class="st0">
		<g>
			<path class="st5" d="M263.8,109.9l27.4,55.6c2.8,5.7,8.3,9.7,14.6,10.6l61.3,8.9c15.9,2.3,22.2,21.9,10.7,33.1l-44.4,43.3
				c-4.6,4.5-6.7,10.9-5.6,17.2l10.5,61.1c2.7,15.8-13.9,27.9-28.1,20.4l-54.9-28.8c-5.6-3-12.4-3-18,0L182.6,360
				c-14.2,7.5-30.8-4.6-28.1-20.4l10.5-61.1c1.1-6.3-1-12.7-5.6-17.2L115,218.1c-11.5-11.2-5.2-30.8,10.7-33.1l61.3-8.9
				c6.3-0.9,11.8-4.9,14.6-10.6l27.4-55.6C236.2,95.5,256.7,95.5,263.8,109.9z"/>
		</g>
		<g>
			
				<image style="overflow:visible;opacity:0.75;enable-background:new    ;" width="132" height="135" xlink:href="D032DDBF.png"  transform="matrix(0.9924 0 0 0.9926 252.4394 223.3114)">
			</image>
			<g>
				<g>
					
						<linearGradient id="SVGID_10_" gradientUnits="userSpaceOnUse" x1="260.1012" y1="216.5" x2="361.9426" y2="216.5" gradientTransform="matrix(1 0 0 -1 0 500)">
						<stop  offset="0" style="stop-color:#632B8F"/>
						<stop  offset="0.194" style="stop-color:#5F2E90"/>
						<stop  offset="0.3978" style="stop-color:#523592"/>
						<stop  offset="0.6063" style="stop-color:#3D4295"/>
						<stop  offset="0.8165" style="stop-color:#20539B"/>
						<stop  offset="1" style="stop-color:#0066A0"/>
					</linearGradient>
					<path class="st6" d="M308.8,334.8c1.3,0.3,2.5,0.6,3.8,0.9c1.6,0.3,3.3,0.5,5,0.6c10.1-0.2,19.4-4.1,28.1-11.6
						c0.4-0.3,0.8-0.7,1.2-1.1c0.6-0.6,1.3-1.2,1.9-1.8c0.9-0.9,1.7-1.8,2.5-2.7c0.1-0.1,0.2-0.2,0.3-0.3
						c6.3-7.2,9.8-15.2,10.5-23.9c0-1.7-0.1-3.3-0.2-4.9c-0.1-1.3-0.3-2.7-0.6-4c-1.6-7.5-5.3-14.7-11.2-21.3
						c-5.6-6.2-12.5-11.4-20.4-15.8c-8.1-4.5-17.1-8.2-26.6-11.1c-11.4-3.4-23.5-5.7-35.4-7.1l42.1,45.6c3.2-1.3,6.9-1.4,10.5-0.1
						c7.4,2.8,11.2,11.2,8.3,18.6c-2.8,7.4-11.2,11.2-18.6,8.3c-7.4-2.8-11.2-11.2-8.3-18.6c0.2-0.4,0.4-0.8,0.6-1.2L260.5,238
						c0.6,11.9,2,23.9,4.6,35.4c2.2,9.7,5.2,19,9.2,27.3c3.9,8.2,8.6,15.5,14.4,21.5C294.5,328.5,301.3,332.8,308.8,334.8z"/>
				</g>
			</g>
		</g>
	</g>
	<g class="st0">
		
			<image style="overflow:visible;enable-background:new    ;" width="267" height="113" xlink:href="D032DDB8.png"  transform="matrix(0.9963 0 0 0.9912 221.9009 279.3341)">
		</image>
	</g>
	<g class="st7">
		
			<image style="overflow:visible;enable-background:new    ;" width="305" height="145" xlink:href="D032DDB6.png"  transform="matrix(1 0 0 1 17.4614 287)">
		</image>
	</g>
	<g class="st0">
		<path class="st5" d="M456.7,313.5c0,0-154,1.1-236.8,85.4h236.8V313.5z"/>
		<path class="st5" d="M288.9,387.7c0,0-96.5-75.7-244.4-57V399h252L288.9,387.7z"/>
	</g>
	<g class="st0">
		<g>
			<defs>
				<path id="SVGID_11_" d="M449.6,309.7L65.4,326.4l-8.7-71.1l-7.9-65.9L201.4,66.6c22.2-17,43.7-5.2,43.7-5.2l177.4,83.4
					L449.6,309.7z"/>
			</defs>
			<clipPath id="SVGID_12_">
				<use xlink:href="#SVGID_11_"  style="overflow:visible;"/>
			</clipPath>
			<g class="st8">
				<g>
					<path d="M29.7,275.9c-1.1-0.1-1.8-1-1.8-2c0.1-1.1,1-1.9,2-1.8c1.1,0.1,1.9,1,1.8,2C31.6,275.2,30.7,276,29.7,275.9z
						 M29.9,272.8c-0.7,0-1.2,0.5-1.3,1.1c0,0.7,0.5,1.2,1.1,1.3c0.7,0,1.2-0.5,1.3-1.1C31.1,273.4,30.5,272.8,29.9,272.8z"/>
				</g>
				<g>
					<g>
						<path d="M7.4,222.6c-1.9-0.1-3.3-1.7-3.1-3.6c0.1-1.8,1.7-3.3,3.6-3.1c1.9,0.1,3.3,1.7,3.1,3.6
							C10.9,221.3,9.3,222.7,7.4,222.6z M7.8,217.1c-1.2-0.1-2.2,0.8-2.3,2c-0.1,1.2,0.8,2.2,2,2.3s2.2-0.8,2.3-2
							C9.9,218.2,9,217.2,7.8,217.1z"/>
					</g>
				</g>
				<g>
					<g>
						<path d="M39.4,233.5c-0.8-0.1-1.4-0.7-1.3-1.5c0.1-0.8,0.7-1.4,1.5-1.3c0.8,0.1,1.4,0.7,1.3,1.5
							C40.8,232.9,40.2,233.5,39.4,233.5z M39.5,231.2c-0.5,0-0.9,0.3-1,0.8c0,0.5,0.3,0.9,0.8,1c0.5,0,0.9-0.3,1-0.8
							C40.4,231.6,40,231.2,39.5,231.2z"/>
					</g>
				</g>
				<g>
					<g>
						<path d="M74.6,221.7c-0.8-0.1-1.4-0.7-1.3-1.5s0.7-1.4,1.5-1.3c0.8,0.1,1.4,0.7,1.3,1.5C76.1,221.2,75.4,221.8,74.6,221.7z
							 M74.8,219.4c-0.5,0-0.9,0.3-1,0.8c0,0.5,0.3,0.9,0.8,1c0.5,0,0.9-0.3,1-0.8C75.7,219.8,75.3,219.4,74.8,219.4z"/>
					</g>
				</g>
				<g>
					<g>
						<path d="M48.4,188.3c-0.8-0.1-1.4-0.7-1.3-1.5c0.1-0.8,0.7-1.4,1.5-1.3c0.8,0.1,1.4,0.7,1.3,1.5S49.1,188.4,48.4,188.3z
							 M48.5,186c-0.5,0-0.9,0.3-1,0.8c0,0.5,0.3,0.9,0.8,1c0.5,0,0.9-0.3,1-0.8C49.4,186.5,49,186,48.5,186z"/>
					</g>
				</g>
				<g>
					<g>
						<path d="M86.1,171.1c-0.8-0.1-1.4-0.7-1.3-1.5s0.7-1.4,1.5-1.3c0.8,0.1,1.4,0.7,1.3,1.5C87.6,170.5,86.9,171.1,86.1,171.1z
							 M86.3,168.7c-0.5,0-0.9,0.3-1,0.8c0,0.5,0.3,0.9,0.8,1c0.5,0,0.9-0.3,1-0.8C87.1,169.2,86.7,168.8,86.3,168.7z"/>
					</g>
				</g>
				<g>
					<g>
						<path d="M140.2,207.4c-0.8-0.1-1.4-0.7-1.3-1.5c0.1-0.8,0.7-1.4,1.5-1.3c0.8,0,1.4,0.7,1.3,1.5
							C141.7,206.9,141,207.5,140.2,207.4z M140.4,205.1c-0.5,0-0.9,0.3-1,0.8c0,0.5,0.3,0.9,0.8,1c0.5,0,0.9-0.3,1-0.8
							C141.2,205.6,140.9,205.2,140.4,205.1z"/>
					</g>
				</g>
				<g>
					<g>
						<path d="M139.7,236.8c-1.9-0.1-3.3-1.7-3.1-3.6c0.1-1.9,1.7-3.3,3.6-3.1c1.9,0.1,3.3,1.7,3.1,3.6
							C143.2,235.5,141.6,236.9,139.7,236.8z M140.1,231.3c-1.2-0.1-2.2,0.8-2.3,2s0.8,2.2,2,2.3s2.2-0.8,2.3-2
							C142.1,232.4,141.2,231.4,140.1,231.3z"/>
					</g>
				</g>
				<g>
					<g>
						<path d="M235.3,225.1c-1.8-0.1-3.3-1.7-3.1-3.6c0.1-1.8,1.7-3.3,3.6-3.1c1.8,0.1,3.3,1.7,3.1,3.6
							C238.7,223.8,237.1,225.3,235.3,225.1z M235.6,219.6c-1.2-0.1-2.2,0.8-2.3,2s0.8,2.2,2,2.3s2.2-0.8,2.3-2
							C237.7,220.7,236.8,219.7,235.6,219.6z"/>
					</g>
				</g>
				<g>
					<g>
						<path d="M311.8,251.5c-1.9-0.1-3.3-1.7-3.1-3.6c0.1-1.9,1.7-3.3,3.6-3.1c1.9,0.1,3.3,1.7,3.1,3.6
							C315.2,250.2,313.6,251.6,311.8,251.5z M312.1,246c-1.2-0.1-2.2,0.8-2.3,2c-0.1,1.2,0.8,2.2,2,2.3s2.2-0.8,2.3-2
							C314.2,247.1,313.3,246.1,312.1,246z"/>
					</g>
				</g>
				<g>
					<g>
						<path d="M356.3,95.4c-1.9-0.1-3.3-1.7-3.1-3.6c0.1-1.9,1.7-3.3,3.6-3.1c1.9,0.1,3.3,1.7,3.1,3.6
							C359.7,94.1,358.1,95.5,356.3,95.4z M356.6,89.9c-1.2-0.1-2.2,0.8-2.3,2c-0.1,1.2,0.8,2.2,2,2.3c1.2,0.1,2.2-0.8,2.3-2
							C358.7,91,357.8,90,356.6,89.9z"/>
					</g>
				</g>
				<g>
					<g>
						<path d="M131.6,189.1c-1.3-0.1-2.2-1.2-2.2-2.5c0.1-1.3,1.2-2.2,2.5-2.2c1.3,0.1,2.2,1.2,2.2,2.5
							C133.9,188.2,132.8,189.2,131.6,189.1z M131.8,185.3c-0.8-0.1-1.5,0.6-1.6,1.4c-0.1,0.8,0.6,1.5,1.4,1.6
							c0.8,0.1,1.5-0.6,1.6-1.4C133.2,186.1,132.6,185.4,131.8,185.3z"/>
					</g>
				</g>
				<g>
					<g>
						<path d="M227.6,254.7c-1.3-0.1-2.2-1.2-2.2-2.5c0.1-1.3,1.2-2.2,2.5-2.2c1.3,0.1,2.2,1.2,2.2,2.5
							C230,253.8,228.9,254.7,227.6,254.7z M227.9,250.9c-0.8-0.1-1.5,0.6-1.6,1.4c-0.1,0.8,0.6,1.5,1.4,1.6
							c0.8,0.1,1.5-0.6,1.6-1.4C229.3,251.6,228.7,250.9,227.9,250.9z"/>
					</g>
				</g>
				<g>
					<g>
						<path d="M262.3,290.8c-1.3-0.1-2.2-1.2-2.2-2.5c0.1-1.3,1.2-2.2,2.5-2.2c1.3,0.1,2.2,1.2,2.2,2.5
							C264.7,289.9,263.6,290.9,262.3,290.8z M262.5,287c-0.8-0.1-1.5,0.6-1.6,1.4s0.6,1.5,1.4,1.6c0.8,0,1.5-0.6,1.6-1.4
							C264,287.8,263.4,287.1,262.5,287z"/>
					</g>
				</g>
				<g>
					<g>
						<path d="M340.8,199.2c-1.3-0.1-2.2-1.2-2.2-2.5c0.1-1.3,1.2-2.2,2.5-2.2c1.3,0.1,2.2,1.2,2.2,2.5
							C343.2,198.3,342.1,199.3,340.8,199.2z M341.1,195.4c-0.8-0.1-1.5,0.6-1.6,1.4c-0.1,0.8,0.6,1.5,1.4,1.6s1.5-0.6,1.6-1.4
							C342.5,196.1,341.9,195.4,341.1,195.4z"/>
					</g>
				</g>
				<g>
					<g>
						<path d="M449.2,223.8c-1.3-0.1-2.2-1.2-2.2-2.5c0.1-1.3,1.2-2.2,2.5-2.2c1.3,0.1,2.2,1.2,2.2,2.5
							C451.5,222.9,450.4,223.9,449.2,223.8z M449.4,220c-0.8-0.1-1.5,0.6-1.6,1.4c-0.1,0.8,0.6,1.5,1.4,1.6s1.5-0.6,1.6-1.4
							C450.8,220.8,450.2,220.1,449.4,220z"/>
					</g>
				</g>
				<g>
					<g>
						<path d="M573.3,215.2c-1.3-0.1-2.2-1.2-2.2-2.5c0.1-1.3,1.2-2.2,2.5-2.2c1.3,0.1,2.2,1.2,2.2,2.5
							C575.7,214.3,574.6,215.3,573.3,215.2z M573.6,211.4c-0.8-0.1-1.5,0.6-1.6,1.4c-0.1,0.8,0.6,1.5,1.4,1.6
							c0.8,0.1,1.5-0.6,1.6-1.4C575,212.2,574.4,211.5,573.6,211.4z"/>
					</g>
				</g>
				<g>
					<g>
						<path d="M21.7,102.4c-1.3-0.1-2.2-1.2-2.2-2.5c0.1-1.3,1.2-2.2,2.5-2.2c1.3,0.1,2.2,1.2,2.2,2.5
							C24.1,101.6,22.9,102.5,21.7,102.4z M21.9,98.7c-0.8-0.1-1.5,0.6-1.6,1.4s0.6,1.5,1.4,1.6s1.5-0.6,1.6-1.4
							C23.3,99.4,22.7,98.7,21.9,98.7z"/>
					</g>
				</g>
				<g>
					<g>
						<path d="M109.9,95.3c-0.8-0.1-1.4-0.7-1.3-1.5s0.7-1.4,1.5-1.3s1.4,0.7,1.3,1.5C111.4,94.8,110.7,95.4,109.9,95.3z M110.1,93
							c-0.5,0-0.9,0.3-1,0.8c0,0.5,0.3,0.9,0.8,1c0.5,0,0.9-0.3,1-0.8S110.6,93,110.1,93z"/>
					</g>
				</g>
				<g>
					<g>
						<path d="M145.4,93.4c-1.3-0.1-2.2-1.2-2.2-2.5c0.1-1.3,1.2-2.2,2.5-2.2c1.3,0.1,2.2,1.2,2.2,2.5
							C147.8,92.5,146.7,93.5,145.4,93.4z M145.6,89.7c-0.8-0.1-1.5,0.6-1.6,1.4s0.6,1.5,1.4,1.6c0.8,0.1,1.5-0.6,1.6-1.4
							C147.1,90.4,146.5,89.7,145.6,89.7z"/>
					</g>
				</g>
				<g>
					<g>
						<path d="M181.5,120.8c-0.8-0.1-1.4-0.7-1.3-1.5c0.1-0.8,0.7-1.4,1.5-1.3s1.4,0.7,1.3,1.5C182.9,120.3,182.3,120.9,181.5,120.8
							z M181.6,118.5c-0.5,0-0.9,0.3-1,0.8c0,0.5,0.3,0.9,0.8,1c0.5,0,0.9-0.3,1-0.8C182.5,119,182.1,118.5,181.6,118.5z"/>
					</g>
				</g>
				<g>
					<g>
						<path d="M243.1,157.8c-0.8-0.1-1.4-0.7-1.3-1.5c0.1-0.8,0.7-1.4,1.5-1.3c0.8,0.1,1.4,0.7,1.3,1.5
							C244.6,157.3,243.9,157.9,243.1,157.8z M243.2,155.5c-0.5,0-0.9,0.3-1,0.8c0,0.5,0.3,0.9,0.8,1c0.5,0,0.9-0.3,1-0.8
							C244.1,155.9,243.7,155.5,243.2,155.5z"/>
					</g>
				</g>
				<g>
					<g>
						<path d="M349.1,158.4c-0.8-0.1-1.4-0.7-1.3-1.5s0.7-1.4,1.5-1.3c0.8,0,1.4,0.7,1.3,1.5C350.6,157.9,349.9,158.5,349.1,158.4z
							 M349.3,156.1c-0.5,0-0.9,0.3-1,0.8c0,0.5,0.3,0.9,0.8,1c0.5,0,0.9-0.3,1-0.8C350.2,156.6,349.8,156.1,349.3,156.1z"/>
					</g>
				</g>
				<g>
					<g>
						<path d="M412.4,195.4c-0.8,0-1.4-0.7-1.3-1.5c0-0.8,0.7-1.4,1.5-1.3c0.8,0.1,1.4,0.7,1.3,1.5
							C413.9,194.9,413.2,195.5,412.4,195.4z M412.6,193.1c-0.5,0-0.9,0.3-1,0.8c0,0.5,0.3,0.9,0.8,1c0.5,0,0.9-0.3,1-0.8
							S413.1,193.1,412.6,193.1z"/>
					</g>
				</g>
				<g>
					<g>
						<path d="M484.5,221.5c-0.8-0.1-1.4-0.7-1.3-1.5c0-0.8,0.7-1.4,1.5-1.3c0.8,0.1,1.4,0.7,1.3,1.5
							C485.9,220.9,485.3,221.5,484.5,221.5z M484.6,219.2c-0.5,0-0.9,0.4-1,0.8c0,0.5,0.3,0.9,0.8,1c0.5,0,0.9-0.3,1-0.8
							C485.5,219.6,485.1,219.2,484.6,219.2z"/>
					</g>
				</g>
				<g>
					<g>
						<path d="M505,145.2c-0.8-0.1-1.4-0.7-1.3-1.5s0.7-1.4,1.5-1.3c0.8,0.1,1.4,0.7,1.3,1.5C506.4,144.6,505.7,145.2,505,145.2z
							 M505.1,142.8c-0.5,0-0.9,0.3-1,0.8c0,0.5,0.3,0.9,0.8,1c0.5,0,0.9-0.3,1-0.8S505.6,142.9,505.1,142.8z"/>
					</g>
				</g>
				<g>
					<g>
						<path d="M451.3,108.7c-0.8-0.1-1.4-0.7-1.3-1.5c0-0.8,0.7-1.4,1.5-1.3s1.4,0.7,1.3,1.5C452.8,108.2,452.1,108.8,451.3,108.7z
							 M451.5,106.4c-0.5,0-0.9,0.3-1,0.8c0,0.5,0.3,0.9,0.8,1c0.5,0,0.9-0.3,1-0.8C452.3,106.9,452,106.4,451.5,106.4z"/>
					</g>
				</g>
				<g>
					<g>
						<path d="M542.4,127.9c-0.8-0.1-1.4-0.7-1.3-1.5c0-0.8,0.7-1.4,1.5-1.3c0.8,0,1.4,0.7,1.3,1.5
							C543.9,127.4,543.2,128,542.4,127.9z M542.6,125.6c-0.5,0-0.9,0.3-1,0.8c0,0.5,0.3,0.9,0.8,1c0.5,0,0.9-0.3,1-0.8
							C543.5,126.1,543.1,125.6,542.6,125.6z"/>
					</g>
				</g>
				<g>
					<g>
						<path d="M516.4,94.9c-0.8-0.1-1.4-0.7-1.3-1.5c0.1-0.8,0.7-1.4,1.5-1.3s1.4,0.7,1.3,1.5S517.2,95,516.4,94.9z M516.5,92.6
							c-0.5,0-0.9,0.3-1,0.8c0,0.5,0.3,0.9,0.8,1c0.5,0,0.9-0.3,1-0.8C517.4,93.1,517,92.6,516.5,92.6z"/>
					</g>
				</g>
				<g>
					<g>
						<path d="M460.3,128.3c-1.3-0.1-2.2-1.2-2.2-2.5c0.1-1.3,1.2-2.2,2.5-2.2c1.3,0.1,2.2,1.2,2.2,2.5
							C462.7,127.4,461.5,128.4,460.3,128.3z M460.5,124.6c-0.8-0.1-1.5,0.6-1.6,1.4s0.6,1.5,1.4,1.6s1.5-0.6,1.6-1.4
							C461.9,125.3,461.3,124.6,460.5,124.6z"/>
					</g>
				</g>
				<g>
					<g>
						<path d="M349.1,158.4c-0.8-0.1-1.4-0.7-1.3-1.5s0.7-1.4,1.5-1.3c0.8,0,1.4,0.7,1.3,1.5C350.6,157.9,349.9,158.5,349.1,158.4z
							 M349.3,156.1c-0.5,0-0.9,0.3-1,0.8c0,0.5,0.3,0.9,0.8,1c0.5,0,0.9-0.3,1-0.8C350.2,156.6,349.8,156.1,349.3,156.1z"/>
					</g>
				</g>
				
					<image style="overflow:visible;enable-background:new    ;" width="7083" height="3658" id="Layer_1_xA0_Image" xlink:href="D032DDB7.png"  transform="matrix(8.362800e-02 5.508000e-03 -5.476974e-03 8.315694e-02 10.3902 -15.7709)">
				</image>
				<g>
					<g>
						<path d="M384,263.7c-1.9-0.1-3.3-1.7-3.1-3.6c0.1-1.9,1.7-3.3,3.6-3.1c1.9,0.1,3.3,1.7,3.1,3.6
							C387.4,262.4,385.8,263.8,384,263.7z M384.3,258.2c-1.2-0.1-2.2,0.8-2.3,2c-0.1,1.2,0.8,2.2,2,2.3c1.2,0.1,2.2-0.8,2.3-2
							C386.4,259.3,385.5,258.3,384.3,258.2z"/>
					</g>
				</g>
				<g>
					<g>
						<path d="M497.5,258.4c-0.8-0.1-1.4-0.7-1.3-1.5s0.7-1.4,1.5-1.3c0.8,0.1,1.4,0.7,1.3,1.5C499,257.9,498.3,258.5,497.5,258.4z
							 M497.7,256.1c-0.5,0-0.9,0.3-1,0.8c0,0.5,0.3,0.9,0.8,1c0.5,0,0.9-0.3,1-0.8C498.5,256.5,498.2,256.1,497.7,256.1z"/>
					</g>
				</g>
				<g>
					<g>
						<path d="M161.2,286c-1.9-0.1-3.3-1.7-3.1-3.6c0.1-1.8,1.7-3.3,3.6-3.1c1.9,0.1,3.3,1.7,3.1,3.6
							C164.7,284.7,163.1,286.1,161.2,286z M161.6,280.5c-1.2-0.1-2.2,0.8-2.3,2s0.8,2.2,2,2.3c1.2,0.1,2.2-0.8,2.3-2
							C163.7,281.6,162.8,280.6,161.6,280.5z"/>
					</g>
				</g>
			</g>
		</g>
	</g>
</g>
<linearGradient id="SVGID_13_" gradientUnits="userSpaceOnUse" x1="839.53" y1="-28.73" x2="840.05" y2="-28.73">
	<stop  offset="0" style="stop-color:#9B2DBD"/>
	<stop  offset="0.2892" style="stop-color:#992EBD"/>
	<stop  offset="0.4482" style="stop-color:#9131BB"/>
	<stop  offset="0.5756" style="stop-color:#8336B8"/>
	<stop  offset="0.6863" style="stop-color:#6F3DB5"/>
	<stop  offset="0.7861" style="stop-color:#5646B0"/>
	<stop  offset="0.8781" style="stop-color:#3752AA"/>
	<stop  offset="0.9624" style="stop-color:#135FA4"/>
	<stop  offset="1" style="stop-color:#0066A0"/>
</linearGradient>
<path class="st9" d="M840-27.2l-0.5-3.1C839.8-29.3,840-28.2,840-27.2z"/>
</svg>
