<?xml version="1.0" encoding="utf-8"?>
<!-- Generator: Adobe Illustrator 21.1.0, SVG Export Plug-In . SVG Version: 6.00 Build 0)  -->
<svg version="1.1" id="Layer_1" xmlns="http://www.w3.org/2000/svg" xmlns:xlink="http://www.w3.org/1999/xlink" x="0px" y="0px"
	 viewBox="0 0 50 40" style="enable-background:new 0 0 50 40;" xml:space="preserve">
<style type="text/css">
	.st0{fill:#FFFFFF;}
	.st1{fill:#923D88;}
	.st2{fill:url(#SVGID_1_);}
	.st3{fill:url(#SVGID_2_);}
	.st4{fill:url(#SVGID_3_);}
	.st5{fill:url(#SVGID_4_);}
	.st6{fill:url(#SVGID_5_);}
</style>
<g>
	<g>
		<path class="st0" d="M23.5,32.6L23.5,32.6L23.5,32.6L23.5,32.6z"/>
		<path class="st0" d="M16.9,19.8c-0.1,0.2-0.3,0.3-0.4,0.5c0.1-0.1,0.2-0.2,0.2-0.3C16.8,19.9,16.8,19.8,16.9,19.8
			c0.1-0.1,0.1-0.1,0.1-0.1c0.1-0.1,0.1-0.1,0.2-0.2c0,0,0,0,0.1,0c0.1-0.1,0.2-0.1,0.2-0.2c-0.1,0.1-0.2,0.1-0.2,0.2
			c-0.1,0.1-0.1,0.1-0.2,0.2C17,19.6,16.9,19.7,16.9,19.8z"/>
		<path class="st0" d="M16.8,27.1C16.8,27.1,16.8,27.1,16.8,27.1C16.8,27.1,16.8,27.1,16.8,27.1c-0.1-0.1-0.1-0.1-0.1-0.2
			C16.7,27,16.7,27,16.8,27.1C16.8,27.1,16.8,27.1,16.8,27.1z"/>
		<path class="st0" d="M16.9,27.2C17,27.3,17,27.3,16.9,27.2C17,27.3,17,27.3,16.9,27.2C16.9,27.2,16.9,27.2,16.9,27.2
			c-0.1-0.1-0.1-0.1-0.1-0.1h0C16.9,27.1,16.9,27.2,16.9,27.2C16.9,27.2,16.9,27.2,16.9,27.2z"/>
		<path class="st0" d="M17.1,27.4c0.1,0.1,0.2,0.2,0.4,0.3C17.3,27.6,17.2,27.5,17.1,27.4C17,27.4,17,27.3,17.1,27.4
			C17,27.3,17,27.3,17.1,27.4C17,27.3,17.1,27.3,17.1,27.4z"/>
		<path class="st0" d="M24.7,27.1C24.7,27,24.7,27,24.7,27.1C24.7,27,24.6,27.1,24.7,27.1c-0.1,0.1-0.1,0.1-0.1,0.1l0,0c0,0,0,0,0,0
			l0,0c0,0,0,0,0,0c-0.1,0.1-0.1,0.1-0.2,0.2c0.1-0.1,0.1-0.1,0.2-0.2c0,0,0,0,0,0c0,0,0,0,0,0c0,0,0,0,0,0c0,0,0,0,0,0
			C24.5,27.2,24.6,27.1,24.7,27.1C24.6,27.1,24.6,27.1,24.7,27.1z"/>
		<path class="st0" d="M24.7,19.9C24.7,19.9,24.7,19.9,24.7,19.9C24.7,19.9,24.7,19.9,24.7,19.9c-0.1-0.1-0.2-0.2-0.2-0.2l0,0
			c0,0,0,0,0,0c-0.1-0.1-0.2-0.1-0.2-0.2c0.1,0.1,0.2,0.1,0.2,0.2c0,0,0,0,0,0c0,0,0,0,0,0C24.5,19.7,24.6,19.8,24.7,19.9
			C24.7,19.9,24.7,19.9,24.7,19.9z"/>
		<path class="st0" d="M24.7,19.9c0.1,0.1,0.1,0.2,0.2,0.3c0,0-0.1-0.1-0.1-0.1C24.8,20,24.7,20,24.7,19.9L24.7,19.9
			C24.7,19.9,24.7,19.9,24.7,19.9z"/>
		<path class="st1" d="M23.5,32.6L23.5,32.6L23.5,32.6L23.5,32.6z"/>
		<path class="st0" d="M23.5,32.6L23.5,32.6L23.5,32.6L23.5,32.6z"/>
		<path class="st0" d="M23.5,32.6L23.5,32.6L23.5,32.6L23.5,32.6z"/>
	</g>
	<g>
		<path class="st0" d="M24.4,6c0,0,0-0.1-0.1-0.1c-0.1-0.2-0.2-0.3-0.4-0.4c0,0,0,0-0.1,0c0,0-0.1,0-0.1-0.1
			C24.1,5.5,24.3,5.7,24.4,6z"/>
	</g>
	<g>
		<path class="st0" d="M16.9,19.8c-0.1,0.2-0.3,0.3-0.4,0.5c0.1-0.1,0.2-0.2,0.2-0.3C16.8,19.9,16.8,19.8,16.9,19.8
			c0.1-0.1,0.1-0.1,0.1-0.1c0.1-0.1,0.1-0.1,0.2-0.2c0,0,0,0,0.1,0c0.1-0.1,0.2-0.1,0.2-0.2c-0.1,0.1-0.2,0.1-0.2,0.2
			c-0.1,0.1-0.1,0.1-0.2,0.2C17,19.6,16.9,19.7,16.9,19.8z"/>
		<path class="st0" d="M16.8,27.1C16.8,27.1,16.8,27.1,16.8,27.1C16.8,27.1,16.8,27.1,16.8,27.1c-0.1-0.1-0.1-0.1-0.1-0.2
			C16.7,27,16.7,27,16.8,27.1C16.8,27.1,16.8,27.1,16.8,27.1z"/>
		<path class="st0" d="M16.9,27.2C17,27.3,17,27.3,16.9,27.2C17,27.3,17,27.3,16.9,27.2C16.9,27.2,16.9,27.2,16.9,27.2
			c-0.1-0.1-0.1-0.1-0.1-0.1h0C16.9,27.1,16.9,27.2,16.9,27.2C16.9,27.2,16.9,27.2,16.9,27.2z"/>
		<path class="st0" d="M17.1,27.4c0.1,0.1,0.2,0.2,0.4,0.3C17.3,27.6,17.2,27.5,17.1,27.4C17,27.4,17,27.3,17.1,27.4
			C17,27.3,17,27.3,17.1,27.4C17,27.3,17.1,27.3,17.1,27.4z"/>
		<path class="st0" d="M24.7,27.1C24.7,27,24.7,27,24.7,27.1C24.7,27,24.6,27.1,24.7,27.1c-0.1,0.1-0.1,0.1-0.1,0.1l0,0c0,0,0,0,0,0
			l0,0c0,0,0,0,0,0c-0.1,0.1-0.1,0.1-0.2,0.2c0.1-0.1,0.1-0.1,0.2-0.2c0,0,0,0,0,0c0,0,0,0,0,0c0,0,0,0,0,0c0,0,0,0,0,0
			C24.5,27.2,24.6,27.1,24.7,27.1C24.6,27.1,24.6,27.1,24.7,27.1z"/>
		<path class="st0" d="M24.7,19.9C24.7,19.9,24.7,19.9,24.7,19.9C24.7,19.9,24.7,19.9,24.7,19.9c-0.1-0.1-0.2-0.2-0.2-0.2l0,0
			c0,0,0,0,0,0c-0.1-0.1-0.2-0.1-0.2-0.2c0.1,0.1,0.2,0.1,0.2,0.2c0,0,0,0,0,0c0,0,0,0,0,0C24.5,19.7,24.6,19.8,24.7,19.9
			C24.7,19.9,24.7,19.9,24.7,19.9z"/>
		<path class="st0" d="M24.7,19.9c0.1,0.1,0.1,0.2,0.2,0.3c0,0-0.1-0.1-0.1-0.1C24.8,20,24.7,20,24.7,19.9L24.7,19.9
			C24.7,19.9,24.7,19.9,24.7,19.9z"/>
		<path class="st1" d="M23.5,32.6L23.5,32.6L23.5,32.6L23.5,32.6z"/>
	</g>
	
		<linearGradient id="SVGID_1_" gradientUnits="userSpaceOnUse" x1="2.95" y1="721.95" x2="46.9913" y2="721.95" gradientTransform="matrix(1 0 0 1 0 -702)">
		<stop  offset="0" style="stop-color:#923D88"/>
		<stop  offset="1" style="stop-color:#6C5E6A"/>
	</linearGradient>
	<path class="st2" d="M24.6,27.1L24.6,27.1C24.6,27.1,24.6,27.1,24.6,27.1L24.6,27.1z M24.6,27.1C24.6,27.1,24.6,27.1,24.6,27.1
		C24.6,27.1,24.6,27.1,24.6,27.1L24.6,27.1z M24.4,19.6L24.4,19.6L24.4,19.6C24.4,19.6,24.4,19.6,24.4,19.6z M24.5,19.7L24.5,19.7
		L24.5,19.7C24.5,19.7,24.5,19.7,24.5,19.7z M24.5,19.7L24.5,19.7L24.5,19.7L24.5,19.7z M24.5,19.7L24.5,19.7L24.5,19.7L24.5,19.7z
		 M24.5,19.7L24.5,19.7c0.1,0.1,0.1,0.1,0.2,0.2C24.6,19.8,24.5,19.7,24.5,19.7z M24.7,19.9C24.7,19.9,24.7,19.9,24.7,19.9
		c0,0,0.1,0.1,0.1,0.1C24.8,20,24.8,20,24.7,19.9z M24.7,19.9L24.7,19.9C24.7,19.9,24.7,19.9,24.7,19.9L24.7,19.9z M24.7,19.9
		L24.7,19.9C24.7,19.9,24.7,19.9,24.7,19.9L24.7,19.9z M24.7,19.9L24.7,19.9L24.7,19.9L24.7,19.9z M16.8,19.8
		c-0.1,0.1-0.1,0.1-0.2,0.2c-0.1,0.1-0.2,0.2-0.2,0.3c0.1-0.1,0.2-0.2,0.3-0.3C16.7,19.9,16.8,19.8,16.8,19.8
		C16.9,19.8,16.9,19.7,16.8,19.8C16.9,19.7,16.9,19.7,16.8,19.8z M17.2,19.4C17.2,19.4,17.2,19.4,17.2,19.4
		C17.2,19.4,17.3,19.4,17.2,19.4C17.3,19.4,17.2,19.4,17.2,19.4z M17.1,19.5c0,0,0.1-0.1,0.1-0.1v0h0C17.2,19.5,17.1,19.5,17.1,19.5
		z M16.8,27.1C16.9,27.2,16.9,27.2,16.8,27.1C16.9,27.2,16.9,27.2,16.8,27.1C16.9,27.2,16.9,27.1,16.8,27.1z M24.5,27.2L24.5,27.2
		L24.5,27.2L24.5,27.2z M24.5,27.2L24.5,27.2C24.5,27.2,24.5,27.2,24.5,27.2C24.5,27.2,24.5,27.2,24.5,27.2z M24.5,27.2L24.5,27.2
		L24.5,27.2C24.5,27.2,24.5,27.2,24.5,27.2z M24.5,27.2L24.5,27.2C24.5,27.2,24.5,27.2,24.5,27.2L24.5,27.2z M24.7,19.9
		C24.7,19.9,24.7,19.9,24.7,19.9c0,0,0.1,0.1,0.1,0.1C24.8,20,24.8,20,24.7,19.9z M24.7,19.9L24.7,19.9
		C24.7,19.9,24.7,19.9,24.7,19.9L24.7,19.9z M24.7,19.9L24.7,19.9C24.7,19.9,24.7,19.9,24.7,19.9L24.7,19.9z M24.5,19.7L24.5,19.7
		L24.5,19.7L24.5,19.7z M24.5,19.7L24.5,19.7L24.5,19.7L24.5,19.7z M24.5,19.7L24.5,19.7L24.5,19.7C24.5,19.7,24.5,19.7,24.5,19.7z
		 M24.5,19.7L24.5,19.7c0.1,0.1,0.1,0.1,0.2,0.2l0,0v0C24.6,19.8,24.5,19.7,24.5,19.7z M24.4,19.6L24.4,19.6L24.4,19.6
		C24.4,19.6,24.4,19.6,24.4,19.6z M24.7,27.1C24.7,27.1,24.6,27.1,24.7,27.1C24.7,27,24.7,27,24.7,27.1C24.7,27,24.7,27,24.7,27.1z
		 M24.6,27.1C24.6,27.1,24.6,27.1,24.6,27.1C24.6,27.1,24.6,27.1,24.6,27.1L24.6,27.1z M24.6,27.1L24.6,27.1
		C24.6,27.1,24.6,27.1,24.6,27.1L24.6,27.1z M24.6,27.1C24.6,27.1,24.6,27.1,24.6,27.1C24.6,27.1,24.6,27.1,24.6,27.1L24.6,27.1z
		 M24.7,27.1C24.7,27.1,24.6,27.1,24.7,27.1C24.7,27,24.7,27,24.7,27.1C24.7,27,24.7,27,24.7,27.1z M24.6,27.1
		C24.6,27.1,24.6,27.1,24.6,27.1C24.6,27.1,24.6,27.1,24.6,27.1L24.6,27.1z M24.6,27.1L24.6,27.1C24.6,27.1,24.6,27.1,24.6,27.1
		L24.6,27.1z M24.6,27.1C24.6,27.1,24.6,27.1,24.6,27.1C24.6,27.1,24.6,27.1,24.6,27.1L24.6,27.1z M17.2,19.4
		C17.2,19.4,17.2,19.4,17.2,19.4C17.2,19.4,17.3,19.4,17.2,19.4C17.3,19.4,17.2,19.4,17.2,19.4z M17.1,19.5c0,0,0.1-0.1,0.1-0.1v0h0
		C17.2,19.5,17.1,19.5,17.1,19.5z M17,27.3C17,27.3,17,27.3,17,27.3L17,27.3C17,27.3,17,27.3,17,27.3z M17,19.6
		C17,19.7,17,19.7,17,19.6c-0.1,0.1-0.1,0.1-0.1,0.1c-0.1,0.1-0.1,0.1-0.2,0.2c-0.1,0.1-0.2,0.2-0.2,0.3c0.1-0.1,0.2-0.2,0.3-0.3
		c0.1-0.1,0.1-0.1,0.2-0.2C16.9,19.7,16.9,19.7,17,19.6L17,19.6z M16.8,27.1L16.8,27.1C16.8,27.1,16.9,27.2,16.8,27.1L16.8,27.1
		L16.8,27.1C16.9,27.2,16.9,27.1,16.8,27.1z M16.8,27.1C16.8,27.1,16.8,27.1,16.8,27.1L16.8,27.1L16.8,27.1z M24.5,27.2L24.5,27.2
		C24.5,27.2,24.5,27.2,24.5,27.2C24.5,27.2,24.5,27.2,24.5,27.2z M24.5,27.2L24.5,27.2C24.5,27.2,24.5,27.2,24.5,27.2L24.5,27.2z
		 M24.7,19.9C24.7,19.9,24.7,19.9,24.7,19.9c0,0,0.1,0.1,0.1,0.1C24.8,20,24.8,20,24.7,19.9z M24.7,19.9L24.7,19.9
		C24.7,19.9,24.7,19.9,24.7,19.9L24.7,19.9z M24.7,19.9L24.7,19.9L24.7,19.9C24.7,19.9,24.7,19.9,24.7,19.9z M24.5,19.7
		C24.5,19.7,24.5,19.7,24.5,19.7L24.5,19.7C24.5,19.7,24.5,19.7,24.5,19.7L24.5,19.7L24.5,19.7L24.5,19.7c0.1,0.1,0.1,0.1,0.2,0.2
		l0,0v0C24.6,19.8,24.5,19.7,24.5,19.7z M24.4,19.6L24.4,19.6L24.4,19.6C24.4,19.6,24.4,19.6,24.4,19.6z M24.7,27.1
		C24.7,27.1,24.6,27.1,24.7,27.1C24.7,27,24.7,27,24.7,27.1C24.7,27,24.7,27,24.7,27.1z M24.6,27.1C24.6,27.1,24.6,27.1,24.6,27.1
		L24.6,27.1C24.6,27.1,24.6,27.1,24.6,27.1z M24.6,27.1C24.6,27.1,24.6,27.1,24.6,27.1L24.6,27.1L24.6,27.1z M24.6,27.1
		C24.6,27.1,24.6,27.1,24.6,27.1L24.6,27.1C24.6,27.1,24.6,27.1,24.6,27.1z M24.5,27.2L24.5,27.2L24.5,27.2L24.5,27.2z M24.5,27.2
		C24.5,27.2,24.5,27.2,24.5,27.2L24.5,27.2L24.5,27.2z M24.7,27.1C24.7,27.1,24.6,27.1,24.7,27.1C24.7,27,24.7,27,24.7,27.1
		C24.7,27,24.7,27,24.7,27.1z M24.6,27.1C24.6,27.1,24.6,27.1,24.6,27.1L24.6,27.1C24.6,27.1,24.6,27.1,24.6,27.1z M24.6,27.1
		C24.6,27.1,24.6,27.1,24.6,27.1L24.6,27.1L24.6,27.1z M24.6,27.1C24.6,27.1,24.6,27.1,24.6,27.1L24.6,27.1
		C24.6,27.1,24.6,27.1,24.6,27.1z M24.5,27.2L24.5,27.2L24.5,27.2L24.5,27.2z M24.5,27.2C24.5,27.2,24.5,27.2,24.5,27.2L24.5,27.2
		L24.5,27.2z M17.2,19.4C17.2,19.4,17.3,19.4,17.2,19.4C17.3,19.4,17.2,19.4,17.2,19.4C17.2,19.4,17.2,19.4,17.2,19.4z M17.2,27.5
		L17.2,27.5C17.2,27.5,17.2,27.5,17.2,27.5C17.2,27.5,17.2,27.5,17.2,27.5z M17.1,19.5c0,0,0.1-0.1,0.1-0.1v0h0
		C17.2,19.5,17.1,19.5,17.1,19.5z M17,27.3L17,27.3C17,27.3,17,27.3,17,27.3C17,27.3,17,27.3,17,27.3z M16.9,19.7
		C16.9,19.7,16.9,19.7,16.9,19.7c-0.1,0.2-0.2,0.2-0.3,0.3c-0.1,0.1-0.2,0.2-0.2,0.3c0.1-0.1,0.2-0.2,0.3-0.3
		C16.7,19.9,16.8,19.8,16.9,19.7C16.9,19.7,16.9,19.7,16.9,19.7L16.9,19.7C17,19.7,17,19.7,16.9,19.7z M16.8,27.1
		C16.8,27.1,16.9,27.2,16.8,27.1L16.8,27.1L16.8,27.1C16.9,27.2,16.9,27.1,16.8,27.1L16.8,27.1z M16.8,27.1L16.8,27.1L16.8,27.1
		C16.8,27.1,16.8,27.1,16.8,27.1z M41,21.8h-2.5v-3.5c0-4.4-3.5-7.9-7.9-7.9h-2c0.1-0.4,0.1-0.7,0.1-1.1V6.4c0-2.9-2.3-5.2-5.2-5.2
		h-5.5c-2.9,0-5.2,2.3-5.2,5.2v2.8c0,0.4,0.1,0.7,0.1,1.1h-2c-4.4,0-8,3.6-8,7.9v10.1c0,4.4,3.5,7.9,7.9,7.9h15.5
		c1.1,1.6,2.9,2.5,4.9,2.5H41c3.4,0,6.1-2.7,6.1-6.1v-5C47,24.5,44.3,21.8,41,21.8z M17,6.4c0-0.5,0.5-1,1-1h5.5c0.1,0,0.1,0,0.2,0
		c0,0,0,0,0,0c0,0,0,0,0.1,0c0,0,0,0,0.1,0c0,0,0.1,0,0.1,0.1c0,0,0.1,0,0.1,0c0.2,0.1,0.3,0.3,0.4,0.4c0,0,0,0.1,0.1,0.1
		c0,0,0,0.1,0,0.1c0,0,0,0,0,0c0,0.1,0,0.1,0,0.2v2.8c0,0.5-0.5,1-1,1H18c-0.5,0-1-0.5-1-1V6.4z M10.9,31.7c-1,0-1.9-0.3-2.6-0.9
		c-0.7-0.6-1.1-1.4-1.1-2.4V18.2c0-2,1.7-3.7,3.7-3.7l6.4,0c-3,0.9-5.9,4.9-6,7.9v0.7c0,3.8,2.2,7.1,5.5,8.6H10.9z M26,23.5
		c0,0.2,0,0.5,0,0.7c0,0.1,0,0.1,0,0.2c0,0.1,0,0.2-0.1,0.3c0,0.1,0,0.2-0.1,0.3c0,0.1-0.1,0.2-0.1,0.3c0,0.1-0.1,0.2-0.1,0.3
		c0,0.1-0.1,0.2-0.1,0.3c0,0.1,0,0.1-0.1,0.2c0,0,0,0,0,0.1v0c0,0,0,0.1,0,0.1c0,0,0,0,0,0c0,0,0,0,0,0c0,0,0,0.1-0.1,0.1
		c0,0.1-0.1,0.1-0.1,0.2v0c0,0.1-0.1,0.1-0.2,0.2v0c0,0-0.1,0.1-0.1,0.1c0,0-0.1,0.1-0.1,0.1c0,0-0.1,0.1-0.1,0.1c0,0,0,0,0,0
		c0,0,0,0,0,0v0h0c0,0,0,0,0,0v0h0c0,0,0,0,0,0h0l0,0h0c0,0,0,0,0,0c0,0,0,0,0,0c0,0,0,0,0,0c0,0,0,0,0,0h0v0c0,0,0,0,0,0v0
		c0,0,0,0,0,0v0l0,0h0l0,0h0c-0.1,0.1-0.1,0.1-0.2,0.2c0,0,0,0,0,0c-0.1,0.1-0.2,0.1-0.2,0.2h0c0,0-0.1,0-0.1,0.1c0,0,0,0,0,0h0
		c-0.1,0-0.1,0.1-0.2,0.1c0,0,0,0,0,0c0,0-0.1,0.1-0.1,0.1c0,0,0,0,0,0c0,0,0,0-0.1,0c-0.1,0-0.1,0.1-0.2,0.1c0,0,0,0,0,0
		c-0.1,0-0.1,0.1-0.2,0.1c0,0,0,0-0.1,0c-0.1,0-0.2,0.1-0.3,0.1c-0.1,0-0.1,0.1-0.2,0.1c0,0,0,0-0.1,0c0,0,0,0,0,0
		c-0.1,0-0.1,0-0.2,0.1c0,0-0.1,0-0.1,0c-0.1,0-0.2,0.1-0.3,0.1c-0.1,0-0.2,0-0.3,0.1c-0.1,0-0.1,0-0.2,0c-0.2,0-0.5,0.1-0.7,0.1
		c-0.3,0-0.5,0-0.8-0.1c0,0,0,0,0,0c0,0-0.1,0-0.1,0c-0.1,0-0.2,0-0.3-0.1c-0.1,0-0.2,0-0.3-0.1c-0.1,0-0.2-0.1-0.3-0.1
		c-0.1,0-0.2-0.1-0.3-0.1c-0.1,0-0.2-0.1-0.3-0.1c0,0,0,0,0,0c-0.1-0.1-0.3-0.1-0.4-0.2c0,0-0.1,0-0.1,0c0,0,0,0,0,0c0,0,0,0,0,0
		c0,0,0,0-0.1,0h0c-0.1-0.1-0.2-0.1-0.3-0.2c0,0,0,0,0,0h0c-0.1,0-0.1-0.1-0.2-0.1h0v0c0,0,0,0,0,0c0,0-0.1-0.1-0.1-0.1c0,0,0,0,0,0
		c0,0,0,0,0,0c0,0,0,0,0,0c0,0,0,0,0,0h0c0,0,0,0,0,0c0,0,0,0,0,0c0,0,0,0,0,0v0c0,0,0,0,0,0c0,0-0.1-0.1-0.1-0.1h0c0,0,0,0,0,0
		c0,0,0,0,0,0l0,0v0c0,0,0-0.1-0.1-0.1h0c0,0,0,0,0,0v0h0c0,0,0,0,0,0c0,0-0.1-0.1-0.1-0.1c-0.1-0.1-0.1-0.1-0.2-0.2
		c0,0,0-0.1-0.1-0.1c0-0.1-0.1-0.1-0.1-0.2c0,0,0,0,0,0c-0.1-0.1-0.1-0.2-0.2-0.3c0,0,0,0,0,0c0,0,0,0,0,0c0-0.1-0.1-0.2-0.1-0.2
		c0,0,0-0.1-0.1-0.1c0,0,0-0.1-0.1-0.1c-0.1-0.2-0.2-0.5-0.3-0.8c0,0,0,0,0,0c0-0.1-0.1-0.3-0.1-0.4c0-0.1,0-0.1,0-0.2
		c0-0.1,0-0.1,0-0.2c0-0.1,0-0.1,0-0.2c0-0.1,0-0.2,0-0.3v0c0-0.1,0-0.2,0-0.3c0,0,0,0,0,0c0-0.2,0-0.3,0-0.4c0-0.1,0-0.2,0.1-0.3
		c0-0.1,0-0.1,0-0.2c0,0,0,0,0-0.1c0,0,0,0,0,0c0-0.1,0-0.1,0.1-0.2c0,0,0,0,0,0c0-0.1,0.1-0.2,0.1-0.3c0,0,0-0.1,0-0.1
		c0-0.1,0.1-0.1,0.1-0.2c0,0,0,0,0,0c0-0.1,0.1-0.2,0.2-0.3c0,0,0.1-0.1,0.1-0.1v0c0,0,0.1-0.1,0.1-0.1c0-0.1,0.1-0.1,0.1-0.2
		c0,0,0,0,0-0.1c0.1-0.1,0.2-0.2,0.3-0.3c0.1-0.1,0.1-0.1,0.2-0.2c0,0,0.1-0.1,0.1-0.1c0,0,0,0,0,0c0,0,0,0,0,0c0,0,0,0,0,0
		c0,0,0.1-0.1,0.1-0.1v0c0,0,0,0,0,0c0,0,0,0,0,0h0c0,0,0,0,0.1,0c0,0,0,0,0.1-0.1c0,0,0,0,0.1,0c0,0,0,0,0.1,0
		c0.1,0,0.1-0.1,0.2-0.1c0,0,0,0,0,0c0.1,0,0.1-0.1,0.2-0.1h0c0.1-0.1,0.3-0.2,0.4-0.2c0.1,0,0.2-0.1,0.3-0.1c0.1,0,0.1-0.1,0.2-0.1
		c0,0,0,0,0.1,0c0.1,0,0.2-0.1,0.3-0.1c0.1,0,0.2-0.1,0.3-0.1c0.1,0,0.2,0,0.3-0.1c0.1,0,0.2,0,0.3,0c0.2,0,0.4,0,0.7,0
		c0.2,0,0.4,0,0.7,0c0.1,0,0.2,0,0.3,0c0.1,0,0.2,0,0.3,0.1c0.1,0,0.2,0,0.2,0.1c0,0,0,0,0,0c0.1,0,0.2,0.1,0.3,0.1
		c0.1,0,0.2,0.1,0.3,0.1c0.1,0,0.2,0.1,0.3,0.1c0.2,0.1,0.3,0.2,0.5,0.2h0c0.1,0.1,0.2,0.2,0.3,0.2c0,0,0.1,0,0.1,0.1
		c0.1,0.1,0.2,0.1,0.3,0.2c0,0,0.1,0.1,0.1,0.1c0,0,0.1,0.1,0.1,0.1l0,0c0,0,0,0,0,0c0,0,0,0,0,0l0,0c0.1,0.1,0.1,0.1,0.2,0.2l0,0
		c0,0,0,0,0,0c0,0,0,0,0,0c0,0,0,0,0,0c0,0,0,0,0,0l0,0v0l0,0c0,0,0,0,0,0c0,0,0.1,0.1,0.1,0.1c0,0,0,0,0.1,0.1h0c0,0,0,0,0.1,0.1
		c0,0,0,0,0,0.1c0,0.1,0.1,0.1,0.1,0.2c0,0,0,0,0,0c0,0.1,0.1,0.2,0.1,0.2c0,0.1,0.1,0.1,0.1,0.2c0,0.1,0.1,0.1,0.1,0.2
		c0,0.1,0.1,0.2,0.1,0.3c0,0.1,0.1,0.2,0.1,0.3c0,0,0,0,0,0l0,0c0,0,0,0,0,0l0,0c0,0.1,0,0.1,0,0.2c0,0,0,0.1,0,0.1c0,0,0,0.1,0,0.2
		c0,0.1,0.1,0.2,0.1,0.4c0,0.1,0,0.3,0,0.4c0,0,0,0,0,0.1C26,23.2,26,23.3,26,23.5L26,23.5z M24.3,14.6h6.4c2,0,3.7,1.7,3.7,3.7v3.5
		h-3c-0.4,0-0.8,0.1-1.1,0.1C29.5,18.6,27.6,16.1,24.3,14.6z M42.7,32.6v-0.1l-3.6-4.1l-0.7,0.8l-3.2,3.9l-0.7-0.5l-1.7-1.3
		l-0.7-0.5l-1.4,1.4l-1.3,1.3c-0.1-0.2-0.1-0.4-0.1-0.5v-5c0-0.2,0.1-0.5,0.1-0.7c0.3-0.7,1-1.1,1.7-1.1h9.7c1,0,1.9,0.8,1.9,1.9
		v4.7l0.1,0.1H42.7z M16.8,27.1C16.8,27.1,16.8,27.1,16.8,27.1L16.8,27.1L16.8,27.1z M16.8,27.1L16.8,27.1
		C16.8,27.1,16.9,27.2,16.8,27.1L16.8,27.1L16.8,27.1C16.9,27.2,16.9,27.1,16.8,27.1z M17,19.6C17,19.7,17,19.7,17,19.6
		c-0.1,0.1-0.1,0.1-0.1,0.1c-0.1,0.1-0.1,0.1-0.2,0.2c-0.1,0.1-0.2,0.2-0.2,0.3c0.1-0.1,0.2-0.2,0.3-0.3c0.1-0.1,0.1-0.1,0.2-0.2
		C16.9,19.7,16.9,19.7,17,19.6L17,19.6z M17,27.3C17,27.3,17,27.3,17,27.3L17,27.3C17,27.3,17,27.3,17,27.3z M17.2,19.4
		C17.2,19.4,17.2,19.4,17.2,19.4C17.2,19.4,17.3,19.4,17.2,19.4C17.3,19.4,17.2,19.4,17.2,19.4z M17.1,19.5c0,0,0.1-0.1,0.1-0.1v0h0
		C17.2,19.5,17.1,19.5,17.1,19.5z M17.2,27.5C17.2,27.5,17.2,27.5,17.2,27.5L17.2,27.5C17.2,27.5,17.2,27.5,17.2,27.5z M24.5,27.2
		L24.5,27.2C24.5,27.2,24.5,27.2,24.5,27.2L24.5,27.2z M24.5,27.2L24.5,27.2L24.5,27.2L24.5,27.2z M24.6,27.1
		C24.6,27.1,24.6,27.1,24.6,27.1C24.6,27.1,24.6,27.1,24.6,27.1L24.6,27.1z M24.6,27.1L24.6,27.1C24.6,27.1,24.6,27.1,24.6,27.1
		L24.6,27.1z M24.6,27.1C24.6,27.1,24.6,27.1,24.6,27.1C24.6,27.1,24.6,27.1,24.6,27.1L24.6,27.1z M24.7,27.1
		C24.7,27.1,24.6,27.1,24.7,27.1C24.7,27,24.7,27,24.7,27.1C24.7,27,24.7,27,24.7,27.1z M24.5,27.2L24.5,27.2
		C24.5,27.2,24.5,27.2,24.5,27.2L24.5,27.2z M24.5,27.2L24.5,27.2L24.5,27.2L24.5,27.2z M24.6,27.1C24.6,27.1,24.6,27.1,24.6,27.1
		C24.6,27.1,24.6,27.1,24.6,27.1L24.6,27.1z M24.6,27.1L24.6,27.1C24.6,27.1,24.6,27.1,24.6,27.1L24.6,27.1z M24.6,27.1
		C24.6,27.1,24.6,27.1,24.6,27.1C24.6,27.1,24.6,27.1,24.6,27.1L24.6,27.1z M24.7,27.1C24.7,27.1,24.6,27.1,24.7,27.1
		C24.7,27,24.7,27,24.7,27.1C24.7,27,24.7,27,24.7,27.1z M24.4,19.6L24.4,19.6L24.4,19.6C24.4,19.6,24.4,19.6,24.4,19.6z M24.5,19.7
		L24.5,19.7c0.1,0.1,0.1,0.1,0.2,0.2l0,0v0C24.6,19.8,24.5,19.7,24.5,19.7z M24.5,19.7L24.5,19.7L24.5,19.7
		C24.5,19.7,24.5,19.7,24.5,19.7z M24.5,19.7L24.5,19.7L24.5,19.7C24.5,19.7,24.5,19.7,24.5,19.7z M24.5,19.7L24.5,19.7L24.5,19.7
		L24.5,19.7z M24.5,19.7L24.5,19.7L24.5,19.7L24.5,19.7z M24.7,19.9L24.7,19.9C24.7,19.9,24.7,19.9,24.7,19.9L24.7,19.9z M24.7,19.9
		L24.7,19.9C24.7,19.9,24.7,19.9,24.7,19.9L24.7,19.9z M24.7,19.9C24.7,19.9,24.7,19.9,24.7,19.9c0,0,0.1,0.1,0.1,0.1
		C24.8,20,24.8,20,24.7,19.9z M24.5,27.2L24.5,27.2L24.5,27.2C24.5,27.2,24.5,27.2,24.5,27.2z M24.5,27.2L24.5,27.2
		C24.5,27.2,24.5,27.2,24.5,27.2C24.5,27.2,24.5,27.2,24.5,27.2z M17.2,19.4C17.2,19.4,17.2,19.4,17.2,19.4
		C17.2,19.4,17.3,19.4,17.2,19.4C17.3,19.4,17.2,19.4,17.2,19.4z M17.1,19.5c0,0,0.1-0.1,0.1-0.1v0h0C17.2,19.5,17.1,19.5,17.1,19.5
		z M17,19.6C17,19.7,17,19.7,17,19.6c-0.1,0.1-0.1,0.1-0.1,0.1c-0.1,0.1-0.1,0.1-0.2,0.2c-0.1,0.1-0.2,0.2-0.2,0.3
		c0.1-0.1,0.2-0.2,0.3-0.3c0.1-0.1,0.1-0.1,0.2-0.2C16.9,19.7,16.9,19.7,17,19.6L17,19.6z M16.8,27.1C16.8,27.1,16.8,27.1,16.8,27.1
		L16.8,27.1L16.8,27.1z M16.8,27.1L16.8,27.1C16.8,27.1,16.9,27.2,16.8,27.1L16.8,27.1L16.8,27.1C16.9,27.2,16.9,27.1,16.8,27.1z
		 M17,27.3C17,27.3,17,27.3,17,27.3L17,27.3C17,27.3,17,27.3,17,27.3z M24.7,19.9C24.7,19.9,24.7,19.9,24.7,19.9
		c0,0,0.1,0.1,0.1,0.1C24.8,20,24.8,20,24.7,19.9z M24.7,19.9L24.7,19.9C24.7,19.9,24.7,19.9,24.7,19.9L24.7,19.9z M24.7,19.9
		L24.7,19.9C24.7,19.9,24.7,19.9,24.7,19.9L24.7,19.9z M24.5,19.7L24.5,19.7L24.5,19.7L24.5,19.7z M24.5,19.7L24.5,19.7L24.5,19.7
		L24.5,19.7z M24.5,19.7L24.5,19.7L24.5,19.7C24.5,19.7,24.5,19.7,24.5,19.7z M24.5,19.7L24.5,19.7c0.1,0.1,0.1,0.1,0.2,0.2l0,0v0
		C24.6,19.8,24.5,19.7,24.5,19.7z M24.4,19.6L24.4,19.6L24.4,19.6C24.4,19.6,24.4,19.6,24.4,19.6z M24.5,27.2L24.5,27.2
		C24.5,27.2,24.5,27.2,24.5,27.2L24.5,27.2z M24.7,27.1C24.7,27.1,24.6,27.1,24.7,27.1C24.7,27,24.7,27,24.7,27.1
		C24.7,27,24.7,27,24.7,27.1z M24.6,27.1C24.6,27.1,24.6,27.1,24.6,27.1C24.6,27.1,24.6,27.1,24.6,27.1L24.6,27.1z M24.6,27.1
		L24.6,27.1C24.6,27.1,24.6,27.1,24.6,27.1L24.6,27.1z M24.5,27.2L24.5,27.2L24.5,27.2L24.5,27.2z M24.5,27.2L24.5,27.2
		C24.5,27.2,24.5,27.2,24.5,27.2C24.5,27.2,24.5,27.2,24.5,27.2z M24.5,27.2L24.5,27.2L24.5,27.2C24.5,27.2,24.5,27.2,24.5,27.2z"/>
	<path class="st0" d="M40.9,26h-9.7c-0.7,0-1.4,0.5-1.7,1.1c-0.1,0.2-0.1,0.5-0.1,0.7v5c0,0.2,0,0.4,0.1,0.5l1.3-1.3l1.4-1.4
		l0.7,0.5l1.7,1.3l0.7,0.5l3.2-3.9l0.7-0.8l3.6,4.1v-4.7C42.7,26.8,41.9,26,40.9,26z M34.1,29.8c-0.1,0-0.1,0-0.1,0
		c-0.3,0-0.6-0.2-0.8-0.4c-0.2-0.2-0.4-0.5-0.4-0.9c0-0.7,0.6-1.3,1.3-1.3c0.1,0,0.1,0,0.1,0c0.7,0,1.2,0.5,1.2,1.3
		C35.4,29.2,34.8,29.8,34.1,29.8z"/>
	<linearGradient id="SVGID_2_" gradientUnits="userSpaceOnUse" x1="16.99" y1="7.77" x2="24.49" y2="7.77">
		<stop  offset="0" style="stop-color:#6C5E6A;stop-opacity:0.2"/>
		<stop  offset="1" style="stop-color:#923D88;stop-opacity:0"/>
	</linearGradient>
	<path class="st3" d="M24.5,6.4v2.8c0,0.5-0.5,1-1,1H18c-0.5,0-1-0.5-1-1V6.4c0-0.5,0.5-1,1-1h5.5c0.1,0,0.1,0,0.2,0c0,0,0,0,0,0
		c0,0,0,0,0.1,0c0,0,0,0,0.1,0c0,0,0.1,0,0.1,0.1c0,0,0.1,0,0.1,0c0.2,0.1,0.3,0.3,0.4,0.4c0,0,0,0.1,0.1,0.1c0,0,0,0.1,0,0.1
		c0,0,0,0,0,0C24.5,6.2,24.5,6.3,24.5,6.4z"/>
	<linearGradient id="SVGID_3_" gradientUnits="userSpaceOnUse" x1="24.31" y1="18.27" x2="34.45" y2="18.27">
		<stop  offset="0" style="stop-color:#6C5E6A;stop-opacity:0.2"/>
		<stop  offset="1" style="stop-color:#923D88;stop-opacity:0"/>
	</linearGradient>
	<path class="st4" d="M34.5,18.3v3.5h-3c-0.4,0-0.8,0.1-1.1,0.1c-0.8-3.3-2.7-5.9-6-7.4h6.4C32.8,14.6,34.5,16.3,34.5,18.3z"/>
	<path class="st0" d="M26,23.4c0,4.4-5.1,7.1-8.6,4.3c-1.7-1.4-2.5-3.7-1.8-5.9c0.8-2.4,3.3-4,5.8-3.6C24,18.5,26,20.8,26,23.4z"/>
	<linearGradient id="SVGID_4_" gradientUnits="userSpaceOnUse" x1="7.21" y1="23.097" x2="17.362" y2="23.097">
		<stop  offset="0" style="stop-color:#6C5E6A;stop-opacity:0.2"/>
		<stop  offset="1" style="stop-color:#923D88;stop-opacity:0"/>
	</linearGradient>
	<path class="st5" d="M16.9,31.7h-5.9c-1,0-1.9-0.3-2.6-0.9c-0.7-0.6-1.1-1.4-1.1-2.4V18.2c0-2,1.7-3.7,3.7-3.7l6.4,0
		c-3,0.9-5.9,4.9-6,7.9v0.7C11.4,26.9,13.6,30.2,16.9,31.7z"/>
	<g>
		<g>
			<linearGradient id="SVGID_5_" gradientUnits="userSpaceOnUse" x1="32.8468" y1="28.47" x2="35.4318" y2="28.47">
				<stop  offset="0" style="stop-color:#923D88"/>
				<stop  offset="1" style="stop-color:#6C5E6A"/>
			</linearGradient>
			<path class="st6" d="M35.4,28.4c0,0.7-0.6,1.3-1.3,1.3c-0.1,0-0.1,0-0.1,0c-0.3,0-0.6-0.2-0.8-0.4c-0.2-0.2-0.4-0.5-0.4-0.9
				c0-0.7,0.6-1.3,1.3-1.3c0.1,0,0.1,0,0.1,0C34.9,27.2,35.4,27.7,35.4,28.4z"/>
		</g>
	</g>
</g>
</svg>
