<?xml version="1.0" encoding="utf-8"?>
<!-- Generator: Adobe Illustrator 21.1.0, SVG Export Plug-In . SVG Version: 6.00 Build 0)  -->
<svg version="1.1" id="Layer_1" xmlns="http://www.w3.org/2000/svg" xmlns:xlink="http://www.w3.org/1999/xlink" x="0px" y="0px"
	 viewBox="0 0 81.5 65" style="enable-background:new 0 0 81.5 65;" xml:space="preserve">
<style type="text/css">
	.st0{fill:url(#SVGID_1_);}
	.st1{fill:#FFFFFF;}
	.st2{fill:url(#SVGID_2_);}
	.st3{fill:#923D88;}
	.st4{fill:url(#SVGID_3_);}
	.st5{fill:url(#SVGID_4_);}
</style>
<g>
	<g>
		
			<linearGradient id="SVGID_1_" gradientUnits="userSpaceOnUse" x1="11.0493" y1="28.3" x2="28.2829" y2="28.3" gradientTransform="matrix(1 0 0 -1 0 66)">
			<stop  offset="0" style="stop-color:#6C5E6A;stop-opacity:0.2"/>
			<stop  offset="1" style="stop-color:#923D88;stop-opacity:0"/>
		</linearGradient>
		<path class="st0" d="M28.3,23.3L28.3,23.3c-0.1,0-0.1,0-0.2,0.1c0,0,0,0-0.1,0l0,0c0,0,0,0-0.1,0s-0.1,0-0.2,0.1l0,0
			c0,0,0,0-0.1,0c-0.2,0.1-0.4,0.2-0.6,0.2c-0.1,0-0.1,0.1-0.2,0.1h-0.1c-0.1,0-0.2,0.1-0.3,0.1l0,0c0,0-0.1,0-0.1,0.1
			c-0.1,0-0.1,0.1-0.1,0.1h-0.1l0,0c-0.1,0-0.2,0.1-0.2,0.1h-0.1c-0.1,0-0.2,0.1-0.3,0.1l-0.1,0.1c-0.1,0-0.1,0.1-0.2,0.1l0,0
			c-0.1,0.1-0.2,0.1-0.2,0.2c0,0-0.1,0-0.1,0.1l-0.1,0.1L24.7,25l0,0c0,0,0,0-0.1,0l-0.1,0.1l-0.1,0.1l-0.1,0.1l0,0
			c-0.1,0.1-0.1,0.1-0.2,0.1l0,0l0,0l0,0L24,25.5l-0.1,0.1c-0.1,0-0.1,0.1-0.1,0.1l-0.1,0.1c-0.2,0.1-0.3,0.3-0.5,0.4
			c-0.1,0.1-0.3,0.3-0.4,0.4l0,0c-0.3,0.2-0.5,0.5-0.7,0.8L22,27.5l0,0c-0.1,0.1-0.1,0.1-0.2,0.2l-0.1,0.1l-0.1,0.1
			c-0.1,0.1-0.2,0.3-0.3,0.4l0,0c0,0.1-0.1,0.1-0.1,0.2l-0.1,0.1l0,0c0,0.1-0.1,0.1-0.1,0.2l-0.1,0.1l0,0l0,0l0,0
			c-0.1,0.1-0.1,0.2-0.2,0.2l0,0l0,0c-0.1,0.2-0.2,0.3-0.3,0.5c-0.1,0.2-0.2,0.3-0.3,0.5l0,0c-0.1,0.2-0.2,0.4-0.3,0.5
			c-0.1,0.2-0.2,0.3-0.2,0.5c0,0,0,0.1-0.1,0.1c-0.1,0.1-0.1,0.2-0.1,0.3c-0.1,0.2-0.2,0.4-0.2,0.6c0,0.1-0.1,0.2-0.1,0.3
			C19,32.6,19,32.8,18.9,33c0,0.1-0.1,0.2-0.1,0.2c0,0.1-0.1,0.2-0.1,0.3c0,0.2-0.1,0.3-0.1,0.5s-0.1,0.3-0.1,0.5
			c0,0.1,0,0.2-0.1,0.3c0,0.2-0.1,0.3-0.1,0.5s-0.1,0.4-0.1,0.6s0,0.4-0.1,0.6c0,0.2,0,0.4,0,0.6v0.1l0,0l0,0c0,0.2,0,0.3,0,0.5
			c0,6.3,3.7,11.8,9.1,14.4h-9.5c-3.4,0-6.2-2.8-6.2-6.2V29.5c0-3.4,2.8-6.2,6.2-6.2H28.3z"/>
		<path class="st1" d="M38.3,53.5L38.3,53.5L38.3,53.5L38.3,53.5z"/>
		<circle class="st1" cx="33.6" cy="38.3" r="8.9"/>
		
			<linearGradient id="SVGID_2_" gradientUnits="userSpaceOnUse" x1="38.9935" y1="36.455" x2="56.2336" y2="36.455" gradientTransform="matrix(1 0 0 -1 0 66)">
			<stop  offset="0" style="stop-color:#6C5E6A;stop-opacity:0.2"/>
			<stop  offset="1" style="stop-color:#923D88;stop-opacity:0"/>
		</linearGradient>
		<path class="st2" d="M56.2,29.5v5.9h-5c-0.7,0-1.3,0.1-1.9,0.2c-0.1-0.4-0.1-0.7-0.2-1.1c0-0.2-0.1-0.3-0.1-0.5s-0.1-0.3-0.1-0.5
			c-0.1-0.2-0.1-0.3-0.2-0.5c-0.1-0.3-0.2-0.7-0.4-1c-0.1-0.3-0.3-0.6-0.4-1c-0.1-0.2-0.2-0.3-0.3-0.5c-0.1-0.1-0.2-0.3-0.2-0.4
			c-0.1-0.1-0.2-0.3-0.3-0.4c0-0.1-0.1-0.1-0.1-0.2c-0.1-0.1-0.1-0.2-0.2-0.3c0,0,0-0.1-0.1-0.1c-0.1-0.1-0.1-0.2-0.2-0.3
			c-0.1-0.1-0.1-0.2-0.2-0.3l-0.1-0.1c-0.1-0.1-0.2-0.3-0.3-0.4l0,0c-0.1-0.1-0.2-0.3-0.3-0.4s-0.2-0.3-0.4-0.4c-0.2,0-0.2,0-0.2,0
			c-0.1-0.1-0.1-0.1-0.2-0.2c-0.1-0.1-0.2-0.2-0.3-0.3l-0.1-0.1c-0.1-0.1-0.2-0.1-0.2-0.2l-0.1-0.1c-0.2-0.2-0.5-0.4-0.7-0.6l0,0
			c-0.2-0.2-0.4-0.3-0.6-0.5l-0.1-0.1c-0.1,0-0.1-0.1-0.2-0.1l0,0l0,0c-0.1-0.1-0.2-0.1-0.3-0.2l0,0l0,0c0,0-0.1,0-0.1-0.1
			c-0.1,0-0.1-0.1-0.2-0.1l0,0c0,0,0,0-0.1,0c-0.1-0.1-0.2-0.1-0.2-0.1l0,0l0,0c0,0-0.1,0-0.1-0.1c-0.1,0-0.1-0.1-0.1-0.1s0,0-0.1,0
			c-0.1-0.1-0.2-0.1-0.4-0.2c-0.1,0-0.2-0.1-0.2-0.1h-0.1h-0.1l0,0c-0.1,0-0.2-0.1-0.3-0.1s-0.1,0-0.1-0.1l0,0c0,0-0.1,0-0.1-0.1
			c-0.1,0-0.1-0.1-0.2-0.1l0,0l0,0c-0.1,0-0.1,0-0.2-0.1h-0.1c0,0,0,0-0.1,0h-0.1l0,0l0,0h11C53.4,23.3,56.2,26.1,56.2,29.5z"/>
		<path class="st3" d="M38.3,53.5L38.3,53.5L38.3,53.5L38.3,53.5z"/>
		<path class="st1" d="M38.3,53.5L38.3,53.5L38.3,53.5L38.3,53.5z"/>
		<path class="st1" d="M38.3,53.5L38.3,53.5L38.3,53.5L38.3,53.5z"/>
	</g>
	<g>
		<path class="st1" d="M39.9,9.8v4.7c0,0.9-0.8,1.7-1.7,1.7h-9.1c-0.9,0-1.7-0.8-1.7-1.7V9.8c0-0.9,0.8-1.7,1.7-1.7h9.1
			C39.1,8.1,39.9,8.8,39.9,9.8z"/>
	</g>
	<g>
		<circle class="st1" cx="33.6" cy="38.3" r="8.9"/>
		<path class="st3" d="M38.3,53.5L38.3,53.5L38.3,53.5L38.3,53.5z"/>
	</g>
	<g>
		<g>
			
				<linearGradient id="SVGID_3_" gradientUnits="userSpaceOnUse" x1="4" y1="33.55" x2="77.4022" y2="33.55" gradientTransform="matrix(1 0 0 -1 0 66)">
				<stop  offset="0" style="stop-color:#923D88"/>
				<stop  offset="1" style="stop-color:#6C5E6A"/>
			</linearGradient>
			<path class="st4" d="M67.4,35.5h-4.1v-5.9c0-7.3-5.9-13.2-13.2-13.2h-3.3c0.1-0.6,0.2-1.2,0.2-1.8V9.8c0-4.8-3.9-8.7-8.7-8.7
				h-9.1c-4.8,0-8.7,3.9-8.7,8.7v4.7c0,0.6,0.1,1.2,0.2,1.8h-3.3C10,16.3,4,22.3,4,29.5v16.9c0,7.3,5.9,13.2,13.2,13.2H43
				c1.8,2.6,4.8,4.2,8.2,4.2h16.2c5.6,0,10.1-4.5,10.1-10.1v-8.4C77.5,40,72.9,35.5,67.4,35.5z M27.4,9.8c0-0.9,0.8-1.7,1.7-1.7h9.1
				c0.9,0,1.7,0.8,1.7,1.7v4.7c0,0.9-0.8,1.7-1.7,1.7h-9.1c-0.9,0-1.7-0.8-1.7-1.7V9.8z M33.6,29.4c4.9,0,8.9,4,8.9,8.9
				s-4,8.9-8.9,8.9s-8.9-4-8.9-8.9C24.7,33.4,28.7,29.4,33.6,29.4z M17.3,52.7c-3.4,0-6.2-2.8-6.2-6.2v-17c0-3.4,2.8-6.2,6.2-6.2h11
				l0,0c-0.1,0-0.1,0-0.2,0.1c0,0,0,0-0.1,0l0,0c0,0,0,0-0.1,0s-0.1,0-0.2,0.1l0,0c0,0,0,0-0.1,0c-0.2,0.1-0.4,0.2-0.6,0.2
				c-0.1,0-0.1,0.1-0.2,0.1h-0.1c-0.1,0-0.2,0.1-0.3,0.1l0,0c0,0-0.1,0-0.1,0.1c-0.1,0-0.1,0.1-0.1,0.1h-0.1l0,0
				c-0.1,0-0.2,0.1-0.2,0.1h-0.1c-0.1,0-0.2,0.1-0.3,0.1l-0.1,0.1c-0.1,0-0.1,0.1-0.2,0.1l0,0c-0.1,0.1-0.2,0.1-0.2,0.2
				c0,0-0.1,0-0.1,0.1l-0.1,0.1L24.7,25l0,0c0,0,0,0-0.1,0l-0.1,0.1l-0.1,0.1l-0.1,0.1l0,0c-0.1,0.1-0.1,0.1-0.2,0.1l0,0l0,0l0,0
				L24,25.5l-0.1,0.1c-0.1,0-0.1,0.1-0.1,0.1l-0.1,0.1c-0.2,0.1-0.3,0.3-0.5,0.4c-0.1,0.1-0.3,0.3-0.4,0.4l0,0
				c-0.3,0.2-0.5,0.5-0.7,0.8L22,27.5l0,0c-0.1,0.1-0.1,0.1-0.2,0.2l-0.1,0.1l-0.1,0.1c-0.1,0.1-0.2,0.3-0.3,0.4l0,0
				c0,0.1-0.1,0.1-0.1,0.2l-0.1,0.1l0,0c0,0.1-0.1,0.1-0.1,0.2l-0.1,0.1l0,0l0,0l0,0c-0.1,0.1-0.1,0.2-0.2,0.2l0,0l0,0
				c-0.1,0.2-0.2,0.3-0.3,0.5c-0.1,0.2-0.2,0.3-0.3,0.5l0,0c-0.1,0.2-0.2,0.4-0.3,0.5c-0.1,0.2-0.2,0.3-0.2,0.5c0,0,0,0.1-0.1,0.1
				c-0.1,0.1-0.1,0.2-0.1,0.3c-0.1,0.2-0.2,0.4-0.2,0.6c0,0.1-0.1,0.2-0.1,0.3C19,32.6,19,32.8,18.9,33c0,0.1-0.1,0.2-0.1,0.2
				c0,0.1-0.1,0.2-0.1,0.3c0,0.2-0.1,0.3-0.1,0.5s-0.1,0.3-0.1,0.5c0,0.1,0,0.2-0.1,0.3c0,0.2-0.1,0.3-0.1,0.5s-0.1,0.4-0.1,0.6
				s0,0.4-0.1,0.6c0,0.2,0,0.4,0,0.6v0.1l0,0l0,0c0,0.2,0,0.3,0,0.5c0,6.3,3.7,11.8,9.1,14.4h-9.9V52.7z M38.2,53.6L38.2,53.6
				L38.2,53.6L38.2,53.6z M38.3,53.5L38.3,53.5L38.3,53.5L38.3,53.5z M38.3,53.5L38.3,53.5L38.3,53.5L38.3,53.5z M47.5,30.6
				c-0.1-0.1-0.2-0.3-0.2-0.4c-0.1-0.1-0.2-0.3-0.3-0.4c0-0.1-0.1-0.1-0.1-0.2c-0.1-0.1-0.1-0.2-0.2-0.3c0,0,0-0.1-0.1-0.1
				c-0.1-0.1-0.1-0.2-0.2-0.3c-0.1-0.1-0.1-0.2-0.2-0.3l-0.1-0.1c-0.1-0.1-0.2-0.3-0.3-0.4l0,0c-0.1-0.1-0.2-0.3-0.3-0.4
				s-0.2-0.3-0.4-0.4C45,27.2,45,27.2,45,27.2c-0.1-0.1-0.1-0.1-0.2-0.2c-0.1-0.1-0.2-0.2-0.3-0.3l-0.1-0.1
				c-0.1-0.1-0.2-0.1-0.2-0.2l-0.1-0.1c-0.2-0.2-0.5-0.4-0.7-0.6l0,0c-0.2-0.2-0.4-0.3-0.6-0.5l-0.1-0.1c-0.1,0-0.1-0.1-0.2-0.1l0,0
				l0,0c-0.1-0.1-0.2-0.1-0.3-0.2l0,0l0,0c0,0-0.1,0-0.1-0.1c-0.1,0-0.1-0.1-0.2-0.1l0,0c0,0,0,0-0.1,0c-0.1-0.1-0.2-0.1-0.2-0.1
				l0,0l0,0c0,0-0.1,0-0.1-0.1c-0.1,0-0.1-0.1-0.1-0.1s0,0-0.1,0c-0.1-0.1-0.2-0.1-0.4-0.2c-0.1,0-0.2-0.1-0.2-0.1h-0.1h-0.1l0,0
				c-0.1,0-0.2-0.1-0.3-0.1s-0.1,0-0.1-0.1l0,0c0,0-0.1,0-0.1-0.1c-0.1,0-0.1-0.1-0.2-0.1l0,0l0,0c-0.1,0-0.1,0-0.2-0.1h-0.1
				c0,0,0,0-0.1,0h-0.1l0,0l0,0h11c3.4,0,6.2,2.8,6.2,6.2v5.9h-5c-0.7,0-1.3,0.1-1.9,0.2c-0.1-0.4-0.1-0.7-0.2-1.1
				c0-0.2-0.1-0.3-0.1-0.5s-0.1-0.3-0.1-0.5c-0.1-0.2-0.1-0.3-0.2-0.5c-0.1-0.3-0.2-0.7-0.4-1c-0.1-0.3-0.3-0.6-0.4-1
				C47.7,30.9,47.6,30.8,47.5,30.6z M70.5,53.6l-6.2-7L63.1,48l-5.3,6.5l-1.2-0.9l-2.8-2.2l0,0l-1.2-0.9l-2.4,2.3l0,0l-2.1,2.1
				C48,54.6,48,54.3,48,54v-8.4c0-0.4,0.1-0.8,0.2-1.2c0.5-1.1,1.6-1.9,2.8-1.9h16.2c1.7,0,3.1,1.4,3.1,3.1v8H70.5z"/>
			<path class="st1" d="M67.4,42.5H51.2c-1.3,0-2.4,0.8-2.8,1.9c-0.2,0.4-0.2,0.8-0.2,1.2V54c0,0.3,0,0.6,0.1,0.9l2.1-2.1l0,0
				l2.4-2.3l1.2,0.9l0,0l2.8,2.2l1.2,0.9l5.3-6.5l1.1-1.4l6.2,7v-8.1C70.5,43.8,69.1,42.5,67.4,42.5z M56,48.7c-0.1,0-0.1,0-0.2,0
				l0,0c-1.1-0.1-2-1-2-2.1c0-1.2,1-2.2,2.2-2.2c0.1,0,0.2,0,0.2,0c1.1,0.1,1.9,1,1.9,2.1C58.1,47.7,57.2,48.7,56,48.7z"/>
		</g>
		<g>
			<g>
				
					<linearGradient id="SVGID_4_" gradientUnits="userSpaceOnUse" x1="53.828" y1="19.35" x2="58.1364" y2="19.35" gradientTransform="matrix(1 0 0 -1 0 66)">
					<stop  offset="0" style="stop-color:#923D88"/>
					<stop  offset="1" style="stop-color:#6C5E6A"/>
				</linearGradient>
				<path class="st5" d="M58.1,46.6c0,1.2-1,2.2-2.2,2.2c-0.1,0-0.1,0-0.2,0l0,0c-1.1-0.1-2-1-2-2.1c0-1.2,1-2.2,2.2-2.2
					c0.1,0,0.2,0,0.2,0C57.3,44.5,58.1,45.4,58.1,46.6z"/>
			</g>
		</g>
	</g>
</g>
</svg>
