<?xml version="1.0" encoding="utf-8"?>
<!-- Generator: Adobe Illustrator 16.0.0, SVG Export Plug-In . SVG Version: 6.00 Build 0)  -->
<!DOCTYPE svg PUBLIC "-//W3C//DTD SVG 1.1//EN" "http://www.w3.org/Graphics/SVG/1.1/DTD/svg11.dtd">
<svg version="1.1" id="Layer_1" xmlns="http://www.w3.org/2000/svg" xmlns:xlink="http://www.w3.org/1999/xlink" x="0px" y="0px"
	 width="76.781px" height="76.583px" viewBox="0 0 76.781 76.583" enable-background="new 0 0 76.781 76.583" xml:space="preserve">
<g>
	<path d="M57.052,67.521l-5.125-32.113c-0.06-0.372,0.193-0.721,0.564-0.78l21.921-3.499c-0.089-3.211-0.145-5.276-0.145-5.276
		c0.157-3.851,0.508-8.461-0.013-11.148c-0.592-3.703-1.813-13.369-1.813-13.369c-1.334,0-2.666,0-3.851,0
		c-4.44,0-16.916,0.809-30.375,1.632C24.758,3.79,22.912,1.336,6.52,1.336c-0.337,0-3.747-0.058-4.084-0.058
		C1.669,9.78,1.992,74.936,1.992,74.936s-1.518,0,2.036,0.295c7.553,0.443,16.032-1.486,23.434-0.305
		c7.404,1.183,17.024-0.791,24.573-0.791c3.852,0,22.222-0.195,22.222-0.195s0.702-2.99,1.441-6.094
		c-0.046,0.017-0.111-0.945-0.188-2.581l-17.679,2.821C57.46,68.145,57.111,67.892,57.052,67.521z"/>
	<path fill="none" d="M10.065,25.991c-1.288,0.351-2.077,1.631-2.544,3.383c-1.237,4.635-0.215,12.583-0.167,15.462
		c0.015,0.957-0.02,1.881,0.218,2.813c0.788,3.088,5.401,3.208,8.811,3.098c0.391-0.014,0.762-0.029,1.115-0.043
		c-3.043-3.341-4.917-7.764-4.917-12.626c0-4.824,1.844-9.214,4.843-12.544C14.963,25.502,12.451,25.341,10.065,25.991z"/>
	<path fill="#FFFFFF" d="M55.995,34.292l2.709-0.345c-0.132-1.153-0.736-5.125-1.044-6.186c-0.094-0.315-0.188-0.628-0.299-0.934
		c-0.286-0.789-0.715-1.442-1.246-1.989c-1.081-1.107-2.607-1.756-4.323-2.129c-2.446-0.53-5.272-0.495-7.767-0.377
		c-0.81,0.038-1.562,0.08-2.271,0.116c-2.979-1.987-6.553-3.151-10.395-3.151c-3.842,0-7.416,1.164-10.395,3.151
		c-0.708-0.036-1.459-0.078-2.266-0.116c-2.495-0.117-5.324-0.152-7.77,0.377c-1.717,0.373-3.243,1.022-4.323,2.128
		c-0.533,0.547-0.961,1.201-1.247,1.99c-0.111,0.306-0.207,0.619-0.298,0.936C3.442,33.336,4.65,40.474,4.68,46.147
		c0.012,2.363,0.915,3.986,2.293,5.111c2.688,2.199,7.217,2.477,10.728,2.438c0.28-0.003,1.483-0.012,3.206-0.023
		c2.99,2.012,6.586,3.188,10.452,3.188c3.874,0,7.477-1.18,10.471-3.197c0.154,0.008,0.313,0.016,0.465,0.026
		c2.357,0.181,7.018,0.431,12.518-0.819l-0.438-2.875c-2.2,0.452-6.266,0.906-8.037,0.754c-0.393-0.015-0.762-0.029-1.115-0.045
		c3.045-3.34,4.918-7.763,4.918-12.625c0-2.542-0.522-4.957-1.445-7.167c2.275,0,4.551,0,6.826,0
		C55.59,31.292,55.956,33.983,55.995,34.292z M10.065,25.991c2.386-0.65,4.898-0.489,7.358-0.458
		c-0.719,0.798-1.366,1.66-1.943,2.571c-2.507,0-5.014,0-7.521,0C8.438,27.018,9.114,26.25,10.065,25.991z M16.383,50.749
		c-3.409,0.109-8.022-0.011-8.811-3.099c-0.238-0.933-0.203-1.854-0.218-2.813c-0.043-2.584-0.866-9.241-0.141-13.933
		c0.033,0.001,0.062,0.008,0.096,0.008c2.239,0,4.478,0,6.717,0c-0.923,2.209-1.447,4.625-1.447,7.167
		c0,4.863,1.874,9.287,4.917,12.626C17.145,50.717,16.774,50.734,16.383,50.749z M39.677,50.635
		c-2.386,1.585-5.243,2.514-8.315,2.514c-3.072,0-5.93-0.929-8.315-2.514c-4.067-2.702-6.756-7.32-6.756-12.558
		c0-5.224,2.673-9.833,6.722-12.538c2.392-1.598,5.263-2.534,8.35-2.534c3.087,0,5.958,0.936,8.35,2.534
		c4.049,2.705,6.723,7.313,6.723,12.538C46.434,43.315,43.743,47.933,39.677,50.635z M45.3,25.534
		c2.459-0.032,4.974-0.193,7.358,0.458c0.949,0.259,1.627,1.026,2.104,2.113c-2.507,0-5.014,0-7.521,0
		C46.666,27.193,46.02,26.332,45.3,25.534z"/>
	<g>
		<path fill="#FFFFFF" d="M31.361,50.019c-6.584,0-11.941-5.356-11.941-11.941c0-6.585,5.357-11.942,11.941-11.942
			s11.94,5.357,11.94,11.942C43.301,44.663,37.945,50.019,31.361,50.019z M31.361,27.991c-5.562,0-10.086,4.525-10.086,10.087
			S25.8,48.165,31.361,48.165s10.086-4.524,10.086-10.086S36.923,27.991,31.361,27.991z"/>
	</g>
	<g>
		<path fill="#FFFFFF" d="M33.191,32.071c1.496,0,1.496-2.319,0-2.319C31.696,29.752,31.696,32.071,33.191,32.071L33.191,32.071z"/>
	</g>
	<g>
		<path fill="#FFFFFF" d="M35.358,34.357c1.049,1.632,2.036,3.134,2.084,5.134c0.034,1.492,2.353,1.496,2.318,0
			c-0.058-2.435-1.116-4.306-2.4-6.304C36.555,31.933,34.547,33.094,35.358,34.357L35.358,34.357z"/>
	</g>
	<path fill="#FFFFFF" d="M38.15,6.191c-4.111-0.427-8.596,0.104-12.747,0.094c-2.04-0.005-3.867,0.591-4.86,2.443
		c-0.096,0.179-0.138,0.355-0.144,0.523c-0.004,0.021-0.012,0.04-0.014,0.062c-0.662,5.315,0.245,8.9,6.003,9.038
		c3.886,0.093,7.754,0.115,11.637,0.258c1.926,0.07,4.094-0.736,4.532-2.845C43.404,11.67,42.971,6.692,38.15,6.191z M29.401,16.033
		c-1.747,0-3.537,0.129-5.264-0.203c-2.2-0.422-1.736-4.213-1.492-6.066c1.497-2.243,8.163-1.151,10.174-1.151
		c1.782,0,3.551-0.017,5.33-0.103c2.615-0.126,2.342,3.566,2.376,5.136C40.616,17.553,31.508,16.033,29.401,16.033z"/>
	<path fill="#ED1C24" d="M59.1,62.708l8.952-11.563c0.085-0.122,0.253-0.155,0.376-0.075l6.707,4.237
		c-0.23-6.918-0.473-15.306-0.644-21.359l-19.582,2.988L59.1,62.708z M65.27,39.532c1.819-0.291,3.53,0.95,3.821,2.77
		c0.291,1.822-0.948,3.533-2.771,3.824c-1.819,0.291-3.532-0.949-3.823-2.771C62.207,41.534,63.448,39.822,65.27,39.532z"/>
	<path fill="#FFFFFF" d="M68.428,51.069c-0.123-0.08-0.291-0.047-0.376,0.075L59.1,62.708L54.91,36.935l19.582-2.988
		c-0.028-1.011-0.055-1.956-0.079-2.818l-21.921,3.499c-0.371,0.06-0.624,0.408-0.564,0.78l5.125,32.113
		c0.061,0.371,0.408,0.624,0.779,0.565l17.68-2.821c-0.107-2.274-0.238-5.856-0.375-9.959L68.428,51.069z"/>
	<circle fill="#FFFFFF" cx="65.795" cy="42.829" r="3.34"/>
</g>
</svg>
