<?xml version="1.0" encoding="utf-8"?>
<!-- Generator: Adobe Illustrator 21.1.0, SVG Export Plug-In . SVG Version: 6.00 Build 0)  -->
<svg version="1.1" id="Layer_1" xmlns="http://www.w3.org/2000/svg" xmlns:xlink="http://www.w3.org/1999/xlink" x="0px" y="0px"
	 viewBox="0 0 50 40" style="enable-background:new 0 0 50 40;" xml:space="preserve">
<style type="text/css">
	.st0{fill:url(#SVGID_1_);}
	.st1{fill:url(#SVGID_2_);}
	.st2{fill:url(#SVGID_3_);}
	.st3{fill:url(#SVGID_4_);}
	.st4{fill:#FFFFFF;}
	.st5{fill:url(#SVGID_5_);}
	.st6{fill:url(#SVGID_6_);}
</style>
<g>
	<g>
		
			<linearGradient id="SVGID_1_" gradientUnits="userSpaceOnUse" x1="16.9579" y1="725.72" x2="43.2094" y2="725.72" gradientTransform="matrix(1 0 0 1 0 -702)">
			<stop  offset="0" style="stop-color:#6C5E6A;stop-opacity:0.2"/>
			<stop  offset="1" style="stop-color:#923D88;stop-opacity:0"/>
		</linearGradient>
		<path class="st0" d="M43.2,19v1.2c-1.1-0.5-2.4-0.8-3.7-0.8c-5.3,0-9.5,4.3-9.5,9.5c0,1.2,0.2,2.3,0.6,3.4h-7.4
			c-3.4,0-6.1-2.8-6.1-6.1V19c0-1.1,0.3-2.2,0.9-3.1c1.5,1.4,3.5,2.3,5.8,2.3c2.6,0,4.9-1.2,6.5-3.1c1.5,1.9,3.8,3.1,6.5,3.1
			c2.3,0,4.3-0.9,5.8-2.3C42.9,16.8,43.2,17.8,43.2,19z"/>
		
			<linearGradient id="SVGID_2_" gradientUnits="userSpaceOnUse" x1="1.1905" y1="722" x2="48.9853" y2="722" gradientTransform="matrix(1 0 0 1 0 -702)">
			<stop  offset="0" style="stop-color:#923D88"/>
			<stop  offset="1" style="stop-color:#6C5E6A"/>
		</linearGradient>
		<path class="st1" d="M47.4,23.7V19c0-2.8-1.1-5.2-2.8-7.1c0.2-0.7,0.2-1.3,0.2-2c0-4.6-3.7-8.3-8.3-8.3c-2.6,0-4.9,1.2-6.5,3.1
			c-1.5-1.9-3.8-3.1-6.5-3.1c-4.6,0-8.3,3.7-8.3,8.3c0,0.7,0.1,1.4,0.2,2c-1.3,1.3-2.2,3-2.6,4.9l-3.1-2.9c-1-0.9-2.2-1.4-3.5-1.4
			c-2.9,0-5.2,2.3-5.2,5.2v10.1c0,2.9,2.3,5.2,5.2,5.2c1.3,0,2.6-0.5,3.5-1.4l3.1-2.9c1.3,4.5,5.3,7.9,10.2,7.9h10.6
			c1.6,1.2,3.6,2,5.8,2c5.3,0,9.5-4.3,9.5-9.5C49,27,48.4,25.2,47.4,23.7z M12.4,23.4l-5.4,5c-0.2,0.2-0.4,0.2-0.7,0.2
			c-0.1,0-0.1,0-0.2,0c-0.1,0-0.1,0-0.2,0s-0.1-0.1-0.2-0.1l-0.1-0.1c0,0,0,0-0.1,0c-0.1-0.1-0.1-0.1-0.2-0.2l0,0l-0.1-0.1l-0.1-0.1
			c0.1-0.1,0.1-0.2,0.1-0.2c0-0.1,0-0.1,0-0.1l0,0l0,0l0,0c0-0.1,0-0.1,0-0.1V17.7c0-0.1,0-0.1,0-0.1v-0.1c0-0.1,0-0.1,0-0.1
			c0-0.1,0.1-0.1,0.1-0.2c0,0,0,0,0-0.1l0.1-0.1c0,0,0-0.1,0.1-0.1c0,0,0,0,0.1-0.1c0.1-0.1,0.1-0.1,0.1-0.1c0.1,0,0.1-0.1,0.1-0.1
			C6,16.8,6,16.7,6,16.7c0.1,0,0.1,0,0.1-0.1h0.1h0.1c0.1,0,0.1,0,0.1,0c0.2,0,0.5,0.1,0.7,0.2l5.4,5.1
			C12.8,22.4,12.8,23.1,12.4,23.4z M32.6,8.6c0.5-1.7,2.1-2.9,3.9-2.9c2,0,3.8,1.5,4.1,3.5c0.1,0.2,0.1,0.4,0.1,0.6
			c0,0.5-0.1,1.1-0.3,1.6c-0.3,0.7-0.7,1.3-1.3,1.7c-0.7,0.5-1.6,0.8-2.5,0.8c-1.1,0-2.1-0.4-2.9-1.1l0,0c-0.6-0.5-1-1.3-1.1-2.1
			c-0.1-0.3-0.1-0.5-0.1-0.8C32.4,9.4,32.4,9,32.6,8.6z M19.5,9.3c0.3-2,2-3.5,4.1-3.5c1.9,0,3.4,1.2,3.9,2.9
			c0.1,0.4,0.2,0.8,0.2,1.3c0,0.3-0.1,0.6-0.1,0.8c-0.2,0.8-0.6,1.6-1.1,2.1c-0.7,0.7-1.7,1.1-2.9,1.1c-1,0-1.8-0.3-2.5-0.8
			c-0.6-0.4-1.1-1-1.3-1.7c-0.2-0.5-0.3-1-0.3-1.6C19.5,9.7,19.5,9.4,19.5,9.3z M29.9,28.9c0,1.2,0.2,2.3,0.6,3.4h-7.4
			c-3.4,0-6.1-2.8-6.1-6.1V19c0-1.1,0.3-2.2,0.9-3.1c1.5,1.4,3.5,2.3,5.8,2.3c2.6,0,4.9-1.2,6.5-3.1c1.5,1.9,3.8,3.1,6.5,3.1
			c2.3,0,4.3-0.9,5.8-2.3c0.5,0.9,0.9,2,0.9,3.1v1.2c-1.1-0.5-2.4-0.8-3.7-0.8C34.2,19.4,29.9,23.7,29.9,28.9z M44.8,29L44.8,29
			c-0.1,2.9-2.4,5.3-5.3,5.3c-0.2,0-0.5,0-0.7-0.1l0,0c-1.4-0.2-2.6-0.9-3.5-1.9c-0.8-0.9-1.2-2.1-1.2-3.4c0-2.9,2.4-5.3,5.3-5.3
			c1.4,0,2.8,0.6,3.7,1.6S44.8,27.5,44.8,29C44.8,28.9,44.8,28.9,44.8,29z"/>
	</g>
	<g>
		<g>
			
				<linearGradient id="SVGID_3_" gradientUnits="userSpaceOnUse" x1="19.4779" y1="711.83" x2="27.7143" y2="711.83" gradientTransform="matrix(1 0 0 1 0 -702)">
				<stop  offset="0" style="stop-color:#6C5E6A;stop-opacity:0.2"/>
				<stop  offset="1" style="stop-color:#923D88;stop-opacity:0"/>
			</linearGradient>
			<path class="st2" d="M27.7,9.9c0,0.3-0.1,0.6-0.1,0.8c-0.2,0.8-0.6,1.6-1.1,2.1c-0.7,0.7-1.7,1.1-2.9,1.1c-1,0-1.8-0.3-2.5-0.8
				c-0.6-0.4-1.1-1-1.3-1.7c-0.2-0.5-0.3-1-0.3-1.6c0-0.2,0-0.4,0.1-0.6c0.3-2,2-3.5,4.1-3.5c1.9,0,3.4,1.2,3.9,2.9
				C27.6,9,27.7,9.4,27.7,9.9z"/>
		</g>
		<g>
			
				<linearGradient id="SVGID_4_" gradientUnits="userSpaceOnUse" x1="32.4021" y1="711.89" x2="40.6384" y2="711.89" gradientTransform="matrix(1 0 0 1 0 -702)">
				<stop  offset="0" style="stop-color:#6C5E6A;stop-opacity:0.2"/>
				<stop  offset="1" style="stop-color:#923D88;stop-opacity:0"/>
			</linearGradient>
			<path class="st3" d="M40.7,9.9c0,0.5-0.1,1.1-0.3,1.6c-0.3,0.7-0.7,1.3-1.3,1.7c-0.7,0.5-1.6,0.8-2.5,0.8c-1.1,0-2.1-0.4-2.9-1.1
				l0,0c-0.6-0.5-1-1.3-1.1-2.1c-0.1-0.3-0.1-0.5-0.1-0.8c0-0.4,0.1-0.8,0.2-1.3c0.5-1.7,2.1-2.9,3.9-2.9c2,0,3.8,1.5,4.1,3.5
				C40.6,9.4,40.7,9.7,40.7,9.9z"/>
		</g>
	</g>
	<g>
		<path class="st4" d="M43.2,25.1c-1-1-2.3-1.6-3.7-1.6c-2.9,0-5.3,2.4-5.3,5.3c0,1.3,0.5,2.5,1.2,3.4c0.8,1,2,1.7,3.5,1.9l0,0
			c0.2,0,0.4,0.1,0.7,0.1c2.9,0,5.3-2.3,5.3-5.3l0,0v-0.1C44.8,27.4,44.2,26.1,43.2,25.1z"/>
	</g>
	<g>
		
			<linearGradient id="SVGID_5_" gradientUnits="userSpaceOnUse" x1="37.6126" y1="731.0182" x2="42.0795" y2="731.0182" gradientTransform="matrix(1 0 0 1 0 -702)">
			<stop  offset="0" style="stop-color:#923D88"/>
			<stop  offset="1" style="stop-color:#6C5E6A"/>
		</linearGradient>
		<path class="st5" d="M38.6,31.3c-0.2,0-0.3-0.1-0.5-0.1c-0.3-0.2-0.5-0.5-0.5-0.8v-2.8c0-0.3,0.2-0.6,0.4-0.8
			c0.2-0.2,0.6-0.2,0.9-0.1l2.6,1.2c0.3,0.1,0.5,0.4,0.5,0.8c0,0.4-0.1,0.7-0.4,0.8L39,31.2C38.9,31.3,38.7,31.3,38.6,31.3z"/>
	</g>
	<g>
		
			<linearGradient id="SVGID_6_" gradientUnits="userSpaceOnUse" x1="5.3908" y1="724.67" x2="12.7116" y2="724.67" gradientTransform="matrix(1 0 0 1 0 -702)">
			<stop  offset="0" style="stop-color:#6C5E6A;stop-opacity:0.2"/>
			<stop  offset="1" style="stop-color:#923D88;stop-opacity:0"/>
		</linearGradient>
		<path class="st6" d="M12.4,23.4l-5.4,5c-0.2,0.2-0.4,0.2-0.7,0.2c-0.1,0-0.1,0-0.2,0c-0.1,0-0.1,0-0.2,0s-0.1-0.1-0.2-0.1
			l-0.1-0.1c0,0,0,0-0.1,0c-0.1-0.1-0.1-0.1-0.2-0.2l0,0l-0.1-0.1l-0.1-0.1c0.1-0.1,0.1-0.2,0.1-0.2c0-0.1,0-0.1,0-0.1l0,0l0,0l0,0
			c0-0.1,0-0.1,0-0.1V17.7c0-0.1,0-0.1,0-0.1v-0.1c0-0.1,0-0.1,0-0.1c0-0.1,0.1-0.1,0.1-0.2c0,0,0,0,0-0.1l0.1-0.1
			c0,0,0-0.1,0.1-0.1c0,0,0,0,0.1-0.1c0.1-0.1,0.1-0.1,0.1-0.1c0.1,0,0.1-0.1,0.1-0.1C6,16.8,6,16.7,6,16.7c0.1,0,0.1,0,0.1-0.1h0.1
			h0.1c0.1,0,0.1,0,0.1,0c0.2,0,0.5,0.1,0.7,0.2l5.4,5.1C12.8,22.4,12.8,23.1,12.4,23.4z"/>
	</g>
</g>
</svg>
