<?xml version="1.0" encoding="utf-8"?>
<!-- Generator: Adobe Illustrator 21.1.0, SVG Export Plug-In . SVG Version: 6.00 Build 0)  -->
<svg version="1.1" id="Layer_1" xmlns="http://www.w3.org/2000/svg" xmlns:xlink="http://www.w3.org/1999/xlink" x="0px" y="0px"
	 viewBox="0 0 81.5 65" style="enable-background:new 0 0 81.5 65;" xml:space="preserve">
<style type="text/css">
	.st0{fill:url(#SVGID_1_);}
	.st1{fill:url(#SVGID_2_);}
	.st2{fill:url(#SVGID_3_);}
	.st3{fill:url(#SVGID_4_);}
	.st4{fill:#FFFFFF;}
	.st5{fill:url(#SVGID_5_);}
	.st6{fill:url(#SVGID_6_);}
</style>
<g>
	<g>
		
			<linearGradient id="SVGID_1_" gradientUnits="userSpaceOnUse" x1="27.2" y1="27.3" x2="70.9524" y2="27.3" gradientTransform="matrix(1 0 0 -1 0 66)">
			<stop  offset="0" style="stop-color:#6C5E6A;stop-opacity:0.2"/>
			<stop  offset="1" style="stop-color:#923D88;stop-opacity:0"/>
		</linearGradient>
		<path class="st0" d="M70.9,30.8v2c-1.9-0.8-4-1.3-6.2-1.3c-8.8,0-15.9,7.1-15.9,15.9c0,2,0.4,3.9,1,5.6H37.4
			c-5.6,0-10.2-4.6-10.2-10.2v-12c0-1.9,0.5-3.7,1.5-5.2c2.5,2.4,5.9,3.9,9.7,3.9c4.3,0,8.2-2,10.8-5.1c2.5,3.1,6.4,5.1,10.8,5.1
			c3.8,0,7.2-1.5,9.7-3.9C70.4,27.1,70.9,28.9,70.9,30.8z"/>
		
			<linearGradient id="SVGID_2_" gradientUnits="userSpaceOnUse" x1="0.921" y1="33.5" x2="80.579" y2="33.5" gradientTransform="matrix(1 0 0 -1 0 66)">
			<stop  offset="0" style="stop-color:#923D88"/>
			<stop  offset="1" style="stop-color:#6C5E6A"/>
		</linearGradient>
		<path class="st1" d="M77.9,38.6v-7.8c0-4.6-1.8-8.7-4.7-11.8c0.3-1.1,0.4-2.2,0.4-3.4c0-7.6-6.2-13.9-13.9-13.9
			c-4.3,0-8.2,2-10.8,5.1c-2.5-3.1-6.4-5.1-10.8-5.1c-7.6,0-13.9,6.2-13.9,13.9c0,1.2,0.1,2.3,0.4,3.4c-2.1,2.2-3.6,5-4.3,8.1
			l-5.1-4.8c-1.6-1.5-3.7-2.3-5.9-2.3c-4.8,0-8.6,3.9-8.6,8.6v16.9c0,4.8,3.9,8.6,8.6,8.6c2.2,0,4.3-0.8,5.9-2.3l5.2-4.9
			c2.1,7.5,8.9,13.1,17,13.1H55c2.7,2,6,3.3,9.6,3.3c8.8,0,15.9-7.1,15.9-15.9C80.6,44.1,79.6,41.1,77.9,38.6z M19.6,38.2l-9,8.4
			C10.3,46.9,9.9,47,9.5,47c-0.1,0-0.2,0-0.3,0c-0.1,0-0.2,0-0.3,0s-0.2-0.1-0.3-0.1l-0.1-0.1c0,0,0,0-0.1,0
			c-0.1-0.1-0.2-0.2-0.3-0.3l0,0L8,46.4l-0.1-0.1C8,46.1,8,46,8,46c0-0.1,0-0.1,0-0.2l0,0l0,0l0,0c0-0.1,0-0.2,0-0.2v-17
			c0-0.1,0-0.2,0-0.2v-0.1c0-0.1,0-0.1,0-0.2s0.1-0.2,0.1-0.3c0,0,0,0,0-0.1l0.1-0.1c0,0,0-0.1,0.1-0.1c0,0,0,0,0.1-0.1
			s0.1-0.1,0.2-0.2c0.1,0,0.1-0.1,0.2-0.1C8.9,27.1,8.9,27,9,27c0.1,0,0.1,0,0.2-0.1h0.1h0.1c0.1,0,0.1,0,0.2,0
			c0.4,0,0.8,0.1,1.1,0.4l9,8.5C20.3,36.5,20.3,37.6,19.6,38.2z M53.3,13.5c0.9-2.8,3.5-4.8,6.5-4.8c3.4,0,6.3,2.5,6.8,5.8
			c0.1,0.3,0.1,0.7,0.1,1c0,0.9-0.2,1.8-0.5,2.6C65.7,19.3,65,20.3,64,21c-1.2,0.9-2.6,1.4-4.1,1.4c-1.9,0-3.5-0.7-4.8-1.9l0,0
			c-1-0.9-1.6-2.1-1.9-3.5c-0.1-0.5-0.2-0.9-0.2-1.4C52.9,14.9,53,14.2,53.3,13.5z M31.5,14.6c0.5-3.3,3.3-5.8,6.8-5.8
			c3.1,0,5.7,2,6.5,4.8c0.2,0.7,0.3,1.3,0.3,2.1c0,0.5-0.1,1-0.2,1.4c-0.3,1.4-1,2.6-1.9,3.5c-1.2,1.2-2.9,1.9-4.8,1.9
			c-1.6,0-3-0.5-4.1-1.4c-1-0.7-1.8-1.7-2.2-2.9c-0.3-0.8-0.5-1.7-0.5-2.6C31.4,15.3,31.4,14.9,31.5,14.6z M48.8,47.4
			c0,2,0.4,3.9,1,5.6H37.4c-5.6,0-10.2-4.6-10.2-10.2v-12c0-1.9,0.5-3.7,1.5-5.2c2.5,2.4,5.9,3.9,9.7,3.9c4.3,0,8.2-2,10.8-5.1
			c2.5,3.1,6.4,5.1,10.8,5.1c3.8,0,7.2-1.5,9.7-3.9c0.9,1.5,1.5,3.3,1.5,5.2v2c-1.9-0.8-4-1.3-6.2-1.3
			C55.9,31.5,48.8,38.6,48.8,47.4z M73.6,47.5L73.6,47.5c-0.1,4.9-4,8.8-8.9,8.8c-0.4,0-0.8,0-1.1-0.1l0,0c-2.3-0.3-4.4-1.5-5.8-3.2
			c-1.3-1.5-2-3.5-2-5.6c0-4.9,4-8.9,8.9-8.9c2.4,0,4.6,1,6.2,2.6s2.7,3.9,2.7,6.3C73.6,47.4,73.6,47.4,73.6,47.5z"/>
	</g>
	<g>
		<g>
			
				<linearGradient id="SVGID_3_" gradientUnits="userSpaceOnUse" x1="31.4" y1="50.45" x2="45.1272" y2="50.45" gradientTransform="matrix(1 0 0 -1 0 66)">
				<stop  offset="0" style="stop-color:#6C5E6A;stop-opacity:0.2"/>
				<stop  offset="1" style="stop-color:#923D88;stop-opacity:0"/>
			</linearGradient>
			<path class="st2" d="M45.1,15.6c0,0.5-0.1,1-0.2,1.4c-0.3,1.4-1,2.6-1.9,3.5c-1.2,1.2-2.9,1.9-4.8,1.9c-1.6,0-3-0.5-4.1-1.4
				c-1-0.7-1.8-1.7-2.2-2.9c-0.3-0.8-0.5-1.7-0.5-2.6c0-0.4,0-0.7,0.1-1c0.5-3.3,3.3-5.8,6.8-5.8c3.1,0,5.7,2,6.5,4.8
				C45,14.2,45.1,14.9,45.1,15.6z"/>
		</g>
		<g>
			
				<linearGradient id="SVGID_4_" gradientUnits="userSpaceOnUse" x1="52.9402" y1="50.35" x2="66.6674" y2="50.35" gradientTransform="matrix(1 0 0 -1 0 66)">
				<stop  offset="0" style="stop-color:#6C5E6A;stop-opacity:0.2"/>
				<stop  offset="1" style="stop-color:#923D88;stop-opacity:0"/>
			</linearGradient>
			<path class="st3" d="M66.7,15.6c0,0.9-0.2,1.8-0.5,2.6c-0.5,1.2-1.2,2.2-2.2,2.9c-1.2,0.9-2.6,1.4-4.1,1.4
				c-1.9,0-3.5-0.7-4.8-1.9l0,0c-1-0.9-1.6-2.1-1.9-3.5c-0.1-0.5-0.2-0.9-0.2-1.4c0-0.7,0.1-1.4,0.3-2.1c0.9-2.8,3.5-4.8,6.5-4.8
				c3.4,0,6.3,2.5,6.8,5.8C66.6,14.9,66.7,15.3,66.7,15.6z"/>
		</g>
	</g>
	<g>
		<path class="st4" d="M70.9,41c-1.6-1.6-3.8-2.6-6.2-2.6c-4.9,0-8.9,4-8.9,8.9c0,2.1,0.8,4.1,2,5.6c1.4,1.7,3.4,2.9,5.8,3.2l0,0
			c0.4,0,0.7,0.1,1.1,0.1c4.9,0,8.8-3.9,8.9-8.8l0,0v-0.1C73.6,44.9,72.6,42.6,70.9,41z"/>
	</g>
	<g>
		
			<linearGradient id="SVGID_5_" gradientUnits="userSpaceOnUse" x1="61.6244" y1="18.4697" x2="69.0692" y2="18.4697" gradientTransform="matrix(1 0 0 -1 0 66)">
			<stop  offset="0" style="stop-color:#923D88"/>
			<stop  offset="1" style="stop-color:#6C5E6A"/>
		</linearGradient>
		<path class="st5" d="M63.2,51.4c-0.3,0-0.5-0.1-0.8-0.2c-0.5-0.3-0.8-0.8-0.8-1.3v-4.7c0-0.5,0.3-1,0.7-1.3s1-0.3,1.5-0.1l4.4,2
			c0.5,0.2,0.9,0.7,0.9,1.3s-0.2,1.1-0.7,1.4L64,51.2C63.7,51.4,63.4,51.4,63.2,51.4z"/>
	</g>
	<g>
		
			<linearGradient id="SVGID_6_" gradientUnits="userSpaceOnUse" x1="7.9214" y1="29.05" x2="20.1227" y2="29.05" gradientTransform="matrix(1 0 0 -1 0 66)">
			<stop  offset="0" style="stop-color:#6C5E6A;stop-opacity:0.2"/>
			<stop  offset="1" style="stop-color:#923D88;stop-opacity:0"/>
		</linearGradient>
		<path class="st6" d="M19.6,38.2l-9,8.4C10.3,46.9,9.9,47,9.5,47c-0.1,0-0.2,0-0.3,0c-0.1,0-0.2,0-0.3,0s-0.2-0.1-0.3-0.1l-0.1-0.1
			c0,0,0,0-0.1,0c-0.1-0.1-0.2-0.2-0.3-0.3l0,0L8,46.4l-0.1-0.1C8,46.1,8,46,8,46c0-0.1,0-0.1,0-0.2l0,0l0,0l0,0c0-0.1,0-0.2,0-0.2
			v-17c0-0.1,0-0.2,0-0.2v-0.1c0-0.1,0-0.1,0-0.2s0.1-0.2,0.1-0.3c0,0,0,0,0-0.1l0.1-0.1c0,0,0-0.1,0.1-0.1c0,0,0,0,0.1-0.1
			s0.1-0.1,0.2-0.2c0.1,0,0.1-0.1,0.2-0.1C8.9,27.1,8.9,27,9,27c0.1,0,0.1,0,0.2-0.1h0.1h0.1c0.1,0,0.1,0,0.2,0
			c0.4,0,0.8,0.1,1.1,0.4l9,8.5C20.3,36.5,20.3,37.6,19.6,38.2z"/>
	</g>
</g>
</svg>
