<?xml version="1.0" encoding="utf-8"?>
<!-- Generator: Adobe Illustrator 16.0.0, SVG Export Plug-In . SVG Version: 6.00 Build 0)  -->
<!DOCTYPE svg PUBLIC "-//W3C//DTD SVG 1.1//EN" "http://www.w3.org/Graphics/SVG/1.1/DTD/svg11.dtd">
<svg version="1.1" id="Layer_1" xmlns="http://www.w3.org/2000/svg" xmlns:xlink="http://www.w3.org/1999/xlink" x="0px" y="0px"
	 width="76.781px" height="76.583px" viewBox="0 0 76.781 76.583" enable-background="new 0 0 76.781 76.583" xml:space="preserve">
<g>
	<path d="M47.855,46.795c0-9.466,7.701-17.167,17.166-17.167c3.483,0,6.725,1.049,9.434,2.839l-0.043-1.339
		c-0.089-3.211-0.145-5.276-0.145-5.276c0.157-3.851,0.508-8.461-0.013-11.148c-0.592-3.703-1.813-13.369-1.813-13.369
		c-1.334,0-2.666,0-3.851,0c-4.44,0-16.916,0.809-30.375,1.632C24.758,3.79,22.912,1.336,6.52,1.336
		c-0.337,0-3.747-0.058-4.084-0.058C1.669,9.78,1.992,74.936,1.992,74.936s-1.518,0,2.036,0.295
		c7.553,0.443,16.032-1.486,23.434-0.305c7.404,1.183,17.024-0.791,24.573-0.791c3.852,0,22.222-0.195,22.222-0.195
		s0.702-2.99,1.441-6.094c-0.046,0.017-0.111-0.945-0.188-2.581l-0.154-4.794c-2.879,2.181-6.451,3.49-10.332,3.49
		C55.557,63.961,47.855,56.26,47.855,46.795z"/>
	<g>
		<path fill="#FFFFFF" d="M6.137,50.176V17.847l15.084,9.154v14.022L6.137,50.176z M9.137,23.177v21.67l9.084-5.515V28.689
			L9.137,23.177z"/>
	</g>
	<g>
		<path fill="#FFFFFF" d="M67.046,19.067c0.444-1.133,0.7-2.361,0.7-3.651c0-5.545-4.514-10.058-10.059-10.058
			c-5.547,0-10.06,4.513-10.06,10.058c0,0.834,0.112,1.64,0.306,2.414c-0.625,0-1.25,0-1.875,0c0.192-0.774,0.307-1.58,0.307-2.414
			c0-5.545-4.514-10.058-10.059-10.058c-5.547,0-10.059,4.513-10.059,10.058c0,1.344,0.27,2.625,0.75,3.798
			c-2.013,1.267-3.359,3.516-3.359,6.082v13.165v5.767c-0.001,0.022-0.001,0.043-0.002,0.065c-0.05,1.814-0.031,4.09,1.35,5.4
			c1.291,1.805,3.387,2.982,5.754,2.982h32.804c3.916,0,7.103-3.215,7.103-7.168V25.296C70.646,22.629,69.191,20.302,67.046,19.067z
			 M63.544,49.678H30.74c-1.177,0-2.234-0.506-2.987-1.307c-0.703-0.748-1.143-1.752-1.143-2.863V26.375v-1.078
			c0-0.751,0.214-1.448,0.56-2.057c0.338-0.594,0.806-1.098,1.378-1.462c1.846,2.249,4.629,3.698,7.759,3.698
			c3.419,0,6.421-1.733,8.238-4.348c0.115-0.166,0.241-0.323,0.348-0.496c1.408,0.016,2.818,0.027,4.229,0.033
			c0.101,0.161,0.218,0.308,0.326,0.463c1.817,2.616,4.819,4.348,8.239,4.348c3.181,0,6.008-1.493,7.854-3.805
			c0.188,0.106,0.366,0.224,0.535,0.358c0.965,0.764,1.598,1.938,1.598,3.269V45.51C67.674,47.808,65.82,49.678,63.544,49.678z
			 M57.688,8.101c4.035,0,7.316,3.282,7.316,7.315c0,0.983-0.197,1.919-0.551,2.776c-0.008,0.019-0.014,0.039-0.021,0.058
			c-0.365,0.865-0.893,1.646-1.543,2.305c-0.201,0.205-0.42,0.393-0.645,0.572c-1.252,1.001-2.834,1.605-4.559,1.605
			c-1.726,0-3.311-0.602-4.563-1.605c-0.182-0.146-0.357-0.3-0.525-0.463c-0.73-0.71-1.303-1.576-1.688-2.537
			c-0.04-0.1-0.088-0.195-0.124-0.297c-0.267-0.757-0.418-1.566-0.418-2.414C50.37,11.383,53.652,8.101,57.688,8.101z M29.54,18.19
			c-0.353-0.855-0.55-1.792-0.55-2.774c0-4.033,3.282-7.315,7.316-7.315c4.034,0,7.316,3.282,7.316,7.315
			c0,0.849-0.151,1.66-0.419,2.417c-0.035,0.101-0.082,0.195-0.122,0.294c-0.368,0.919-0.903,1.755-1.591,2.446
			c-0.196,0.197-0.407,0.379-0.625,0.554c-1.252,1.002-2.836,1.605-4.56,1.605c-1.724,0-3.305-0.604-4.557-1.605
			c-0.227-0.182-0.446-0.372-0.65-0.578c-0.652-0.662-1.176-1.446-1.539-2.314C29.555,18.219,29.546,18.206,29.54,18.19z"/>
		<path fill="#FFFFFF" d="M57.688,19.294c1.084,0,2.062-0.449,2.766-1.167c0.688-0.7,1.111-1.656,1.111-2.711
			c0-2.137-1.738-3.877-3.877-3.877s-3.877,1.74-3.877,3.877c0,1.055,0.426,2.011,1.111,2.711
			C55.626,18.845,56.604,19.294,57.688,19.294z M57.688,14.199c0.672,0,1.217,0.546,1.217,1.217c0,0.672-0.545,1.218-1.217,1.218
			c-0.67,0-1.217-0.546-1.217-1.218C56.471,14.745,57.018,14.199,57.688,14.199z"/>
		<path fill="#FFFFFF" d="M36.307,19.294c1.083,0,2.061-0.449,2.765-1.167c0.687-0.7,1.111-1.656,1.111-2.711
			c0-2.137-1.739-3.877-3.876-3.877c-2.139,0-3.878,1.74-3.878,3.877c0,1.055,0.426,2.011,1.112,2.711
			C34.245,18.845,35.224,19.294,36.307,19.294z M36.307,14.199c0.671,0,1.217,0.546,1.217,1.217c0,0.672-0.546,1.218-1.217,1.218
			c-0.672,0-1.218-0.546-1.218-1.218C35.089,14.745,35.635,14.199,36.307,14.199z"/>
	</g>
	<path fill="#ED1C24" d="M65.021,32.629c-7.812,0-14.166,6.355-14.166,14.167c0,7.813,6.354,14.168,14.166,14.168
		c4.012,0,7.629-1.684,10.209-4.371L74.581,36.37C72.059,34.055,68.708,32.629,65.021,32.629z"/>
	<path fill="#FFFFFF" d="M75.296,58.605l-0.065-2.013c-2.578,2.688-6.196,4.369-10.207,4.369c-7.813,0-14.168-6.354-14.168-14.166
		c0-7.813,6.355-14.167,14.168-14.167c3.686,0,7.035,1.426,9.559,3.741l-0.064-2.017l-0.062-1.885
		c-2.709-1.79-5.949-2.839-9.433-2.839c-9.467,0-17.168,7.701-17.168,17.167c0,9.465,7.701,17.166,17.168,17.166
		c3.881,0,7.453-1.311,10.332-3.49L75.296,58.605z"/>
	<polygon fill="#FFFFFF" points="59.641,53.499 71.854,46.795 59.641,40.094 	"/>
</g>
</svg>
