<?xml version="1.0" encoding="utf-8"?>
<!-- Generator: Adobe Illustrator 16.0.0, SVG Export Plug-In . SVG Version: 6.00 Build 0)  -->
<!DOCTYPE svg PUBLIC "-//W3C//DTD SVG 1.1//EN" "http://www.w3.org/Graphics/SVG/1.1/DTD/svg11.dtd">
<svg version="1.1" id="Layer_1" xmlns="http://www.w3.org/2000/svg" xmlns:xlink="http://www.w3.org/1999/xlink" x="0px" y="0px"
	 width="76.781px" height="76.583px" viewBox="0 0 76.781 76.583" enable-background="new 0 0 76.781 76.583" xml:space="preserve">
<g>
	<path d="M71.014,69.517c-2.414,0.829-5.951,2.567-8.582,2.093c-2.58-0.466-3.979-3.947-4.791-6.043
		c-1.242-3.66-2.561-7.293-3.895-10.92c-0.574-1.545-1.141-3.092-1.708-4.641c-0.567-1.547-1.132-3.096-1.692-4.646
		c-1.326-3.631-2.664-7.257-4.08-10.852c-0.736-2.123-1.916-5.684-0.246-7.709c1.701-2.061,5.523-3.018,7.902-3.945
		c1.234-0.481,2.475-0.95,3.721-1.411c0.33-0.122,0.66-0.24,0.991-0.36c2.546-0.923,5.112-1.789,7.716-2.521
		c2.121-0.596,4.265-0.091,5.494,1.976c0.99,1.661,1.748,3.468,2.424,5.313c0.158-3.851,0.508-8.461-0.012-11.148
		c-0.592-3.703-1.813-13.369-1.813-13.369c-1.334,0-2.666,0-3.852,0c-4.439,0-16.916,0.809-30.375,1.632
		C24.758,3.79,22.912,1.336,6.52,1.336c-0.337,0-3.747-0.058-4.084-0.058C1.669,9.78,1.992,74.936,1.992,74.936
		s-1.518,0,2.036,0.295c7.553,0.443,16.032-1.486,23.434-0.305c7.404,1.183,17.024-0.791,24.573-0.791
		c3.852,0,22.222-0.195,22.222-0.195s0.702-2.99,1.441-6.094c-0.304,0.111-0.606,0.227-0.909,0.337
		C73.533,68.64,72.273,69.084,71.014,69.517z"/>
	<path fill="none" d="M26.573,50.081c0.077,1.349,0.394,2.551,1.501,3.07c1.227,0,2.454,0,3.68,0c1.423,0,2.847,0,4.27,0
		c0.965-0.035,1.931-0.063,2.899-0.068c1.154-0.422,1.947-1.317,2.021-3.086c-0.801-0.021-1.604-0.045-2.403-0.057
		C34.554,49.946,30.568,49.986,26.573,50.081z"/>
	<path fill="#FFFFFF" d="M49.109,41.512L9.968,41.641c-0.004-0.137-0.056-15.416,0.133-18.359c0.1-1.56,0.042-6.208,0.128-6.968
		c0.285-2.51,0.807-4.717,3.771-5.277c2.286-0.188,4.591-0.238,6.889-0.282c5.413-0.05,10.826-0.116,16.238-0.114
		c0.199,0.001,0.396,0.001,0.594,0.003c1.517,0.001,3.038,0.023,4.554,0.038c1.334,0.015,2.668,0.03,4.002,0.045
		c2.431,0.05,4.856,0.142,7.287,0.249c3.892,0.172,4.746,2.546,4.979,6.023c0.055,0.808,0.053,3.567,0.051,4.386
		c0.877-0.301,1.762-0.591,2.645-0.875c-0.005-0.127-0.01-2.2-0.015-2.328c-0.15-3.651-0.738-7.565-3.501-9.008
		c-0.484-0.254-1.051-0.418-1.685-0.504c-0.106-0.015-0.196-0.046-0.308-0.056c-1.943-0.161-3.891-0.279-5.84-0.372
		C44.732,7.995,39.553,7.956,34.37,8.001c-5.182-0.045-10.361-0.006-15.52,0.241c-1.95,0.093-3.896,0.211-5.84,0.372
		c-0.111,0.009-0.201,0.041-0.306,0.056c-0.634,0.086-1.2,0.25-1.685,0.504c-2.7,1.412-3.313,5.191-3.473,8.774
		C7.46,19.932,6.804,39.161,7.08,42.116c0.095,1.018,0.216,2.031,0.388,3.037c0.03,0.18,0.079,0.33,0.117,0.495
		c0.846,3.558,3.714,4.216,6.887,4.298c3.199,0.497,6.787,0.277,9.218,0.197c0.128-0.004,0.256-0.004,0.384-0.008
		c0.053,1.082,0.201,2.123,0.554,3.016c-1.526,0-3.053,0-4.581,0c-1.614,0-1.614,2.502,0,2.502c2.715,0,5.485,0.109,8.263,0.195
		c1.043,0.131,2.109,0.131,3.175,0.074c2.937,0.05,5.861,0.018,8.713-0.271c2.922,0,5.843,0,8.763,0c1.616,0,1.616-2.502,0-2.502
		c-1.923,0-3.855-0.031-5.79-0.059c0.224-0.903,0.253-1.953,0.279-3.014c0.534,0.021,1.067,0.035,1.604,0.063
		c1.752,0.086,5.601-0.102,7.367-0.2C51.829,48.395,49.605,42.801,49.109,41.512z M38.922,53.083
		c-0.968,0.008-1.934,0.033-2.899,0.068c-1.423,0-2.847,0-4.27,0c-1.226,0-2.453,0-3.68,0c-1.107-0.52-1.424-1.725-1.501-3.07
		c3.996-0.095,7.981-0.135,11.965-0.141c0.8,0.012,1.604,0.034,2.404,0.057C40.869,51.763,40.076,52.661,38.922,53.083z"/>
	<g>
		<g>
			<path fill="#FFFFFF" d="M41.411,25.612c-0.085-0.115-0.188-0.219-0.306-0.305l-6.104-4.577l-1.831,2.441l4.475,3.356
				l-4.475,3.356l1.831,2.44l6.104-4.576C41.781,27.241,41.918,26.287,41.411,25.612z"/>
		</g>
	</g>
	<g>
		<g>
			
				<rect x="19.769" y="25" transform="matrix(-0.3715 0.9284 -0.9284 -0.3715 63.0082 10.3989)" fill="#FFFFFF" width="16.43" height="3.051"/>
		</g>
	</g>
	<g>
		<g>
			<path fill="#FFFFFF" d="M15.396,27.748l6.103,4.576l1.831-2.44l-4.475-3.356l4.475-3.356l-1.831-2.441l-6.103,4.577
				c-0.116,0.085-0.219,0.189-0.304,0.305C14.584,26.287,14.721,27.241,15.396,27.748z"/>
		</g>
	</g>
	<path fill="#ED1C24" d="M74.65,34.508c-0.215-0.594-0.43-1.188-0.646-1.782c-1.137-3.104-1.977-8.167-4.195-10.729
		c-2.103-2.424-7.066,0.287-9.393,1.114c-2.766,0.985-5.529,1.988-8.223,3.158c-3.639,1.582-5.035,3.177-3.578,7.382
		c2.019,5.122,3.855,10.316,5.748,15.492c0,0.005,0,0.009,0.002,0.012c0.002,0.008,0.004,0.008,0.004,0.012
		c1.902,5.17,1.607,3.736,3.375,8.951c1.602,4.149,3.699,4.467,7.501,3.324c2.81-0.847,5.569-1.865,8.313-2.9
		c0.64-0.24,1.523-0.504,2.471-0.82l-0.504-12.354c-0.032-0.465-0.067-0.931-0.229-3.097"/>
	<path fill="#ED1C24" d="M73.878,60.915c-1.333,0.487-2.665,0.977-3.998,1.463c-1.517,0.558-0.653,2.904,0.862,2.353
		c1.33-0.485,2.662-0.978,3.996-1.464C76.254,62.708,75.393,60.358,73.878,60.915z"/>
	<path fill="#FFFFFF" d="M73.561,58.54c-2.744,1.037-5.506,2.057-8.313,2.901c-3.804,1.144-5.897,0.825-7.501-3.323
		c-1.77-5.216-1.475-3.781-3.375-8.953c0-0.002-0.002-0.004-0.004-0.011c-0.004-0.003-0.004-0.007-0.004-0.012
		c-0.307-0.843-0.613-1.687-0.92-2.53l21.636-7.789l-0.172-2.172l-22.179,7.998c-1.279-3.525-2.567-7.049-3.936-10.541l23.063-8.295
		c0.863,2.354,1.451,5.002,2.149,6.91c0.218,0.594,0.433,1.188,0.647,1.782c-0.154-1.745-0.295-3.234-0.396-4.298
		c-0.089-1.163-0.056-2.688,0.012-4.354c-0.676-1.845-1.434-3.652-2.424-5.313c-1.23-2.066-3.373-2.572-5.494-1.976
		c-2.604,0.732-5.17,1.598-7.716,2.521c-0.331,0.12-0.661,0.238-0.991,0.36c-1.246,0.46-2.484,0.93-3.721,1.411
		c-2.379,0.927-6.201,1.884-7.902,3.945c-1.67,2.025-0.49,5.586,0.246,7.709c1.416,3.595,2.754,7.221,4.08,10.852
		c0.563,1.549,1.125,3.098,1.692,4.645c0.567,1.55,1.134,3.097,1.708,4.642c1.334,3.627,2.652,7.261,3.895,10.92
		c0.813,2.097,2.211,5.577,4.791,6.043c2.631,0.478,6.168-1.264,8.582-2.093c1.26-0.434,2.521-0.877,3.774-1.334
		c0.303-0.109,0.606-0.227,0.909-0.337c0.002-0.007,0.002-0.015,0.004-0.021c0.322-1.464,0.445-3.074,0.441-6.127l-0.111-3.979
		C75.085,58.036,74.199,58.299,73.561,58.54z M52.195,26.268c2.691-1.17,5.455-2.173,8.222-3.158
		c2.324-0.827,7.29-3.538,9.394-1.114c0.463,0.534,0.862,1.181,1.222,1.892l-22.843,8.218C47.574,29.023,49.039,27.64,52.195,26.268
		z M74.738,63.264c-1.334,0.486-2.666,0.977-3.996,1.464c-1.516,0.554-2.379-1.795-0.862-2.351c1.333-0.488,2.665-0.978,3.998-1.465
		C75.393,60.358,76.254,62.708,74.738,63.264z"/>
</g>
</svg>
