<?xml version="1.0" encoding="utf-8"?>
<!-- Generator: Adobe Illustrator 21.1.0, SVG Export Plug-In . SVG Version: 6.00 Build 0)  -->
<svg version="1.1" id="Layer_1" xmlns="http://www.w3.org/2000/svg" xmlns:xlink="http://www.w3.org/1999/xlink" x="0px" y="0px"
	 viewBox="0 0 81.5 65" style="enable-background:new 0 0 81.5 65;" xml:space="preserve">
<style type="text/css">
	.st0{fill:url(#SVGID_1_);}
	.st1{fill:url(#SVGID_2_);}
	.st2{fill:url(#SVGID_3_);}
	.st3{fill:#FFFFFF;}
	.st4{fill:url(#SVGID_4_);}
	.st5{fill:url(#SVGID_5_);}
	.st6{fill:url(#SVGID_6_);}
	.st7{fill:url(#SVGID_7_);}
</style>
<g>
	<g>
		
			<linearGradient id="SVGID_1_" gradientUnits="userSpaceOnUse" x1="32.3248" y1="57.5" x2="34.8704" y2="57.5" gradientTransform="matrix(1 0 0 -1 0 66)">
			<stop  offset="0" style="stop-color:#FFFFFF"/>
			<stop  offset="1" style="stop-color:#000000"/>
		</linearGradient>
		<path class="st0" d="M34.9,8.3c-0.4,0.3-0.8,0.4-1.3,0.4s-0.9-0.2-1.3-0.4H34.9z"/>
	</g>
	<g>
		
			<linearGradient id="SVGID_2_" gradientUnits="userSpaceOnUse" x1="31.4785" y1="59.4" x2="35.7169" y2="59.4" gradientTransform="matrix(1 0 0 -1 0 66)">
			<stop  offset="0" style="stop-color:#FFFFFF"/>
			<stop  offset="1" style="stop-color:#000000"/>
		</linearGradient>
		<path class="st1" d="M33.6,4.5c-1.2,0-2.1,0.9-2.1,2.1c0,0.7,0.3,1.3,0.8,1.7c0.4,0.3,0.8,0.4,1.3,0.4s0.9-0.2,1.3-0.4
			c0.5-0.4,0.8-1,0.8-1.7C35.7,5.4,34.8,4.5,33.6,4.5z"/>
	</g>
	
		<linearGradient id="SVGID_3_" gradientUnits="userSpaceOnUse" x1="45.6383" y1="16.35" x2="45.8483" y2="16.35" gradientTransform="matrix(1 0 0 -1 0 66)">
		<stop  offset="0" style="stop-color:#FFFFFF"/>
		<stop  offset="1" style="stop-color:#000000"/>
	</linearGradient>
	<path class="st2" d="M45.6,49.6L45.6,49.6h0.2H45.6z"/>
	<g>
		<path class="st3" d="M35.7,6.6c0,0.7-0.3,1.3-0.8,1.7c-0.4,0.3-0.8,0.4-1.3,0.4s-0.9-0.2-1.3-0.4c-0.5-0.4-0.8-1-0.8-1.7
			c0-1.2,0.9-2.1,2.1-2.1C34.8,4.5,35.7,5.4,35.7,6.6z"/>
	</g>
	
		<linearGradient id="SVGID_4_" gradientUnits="userSpaceOnUse" x1="4.7" y1="33.5" x2="76.7844" y2="33.5" gradientTransform="matrix(1 0 0 -1 0 66)">
		<stop  offset="0" style="stop-color:#923D88"/>
		<stop  offset="1" style="stop-color:#6C5E6A"/>
	</linearGradient>
	<path class="st4" d="M75.2,37c-0.5-0.6-1-1.2-1.6-1.6l-8-6c-0.3-0.2-0.5-0.4-0.8-0.5c-0.6-0.7-1.3-1.2-2.2-1.6l-0.2-0.1V12.6
		c0-5.2-4.2-9.5-9.5-9.5H14.2c-5.2,0-9.5,4.3-9.5,9.5v27.5c0,5.2,4.3,9.5,9.5,9.5h5.7v8.8c0,1.9,1.6,3.5,3.5,3.5h20.4
		c1.9,0,3.5-1.6,3.5-3.5v-2.5l3.4,1.4c0.6,0.3,1.3,0.4,2,0.4s1.5-0.1,2.1-0.4c1.3-0.6,2.4-1.6,2.9-3l0.5-1.1c1.1,1.3,2.6,2,4.2,2
		c1.1,0,2.3-0.4,3.2-1.1l8-6c1.7-1.3,2.8-3.1,3.1-5.2C77,40.7,76.5,38.7,75.2,37z M33.6,4.5c1.2,0,2.1,0.9,2.1,2.1
		c0,0.7-0.3,1.3-0.8,1.7c-0.4,0.3-0.8,0.4-1.3,0.4s-0.9-0.2-1.3-0.4c-0.5-0.4-0.8-1-0.8-1.7C31.5,5.4,32.4,4.5,33.6,4.5z M14.2,42.6
		c-1.4,0-2.5-1.1-2.5-2.5V12.6c0-1.4,1.1-2.5,2.5-2.5H53c1.4,0,2.5,1.1,2.5,2.5v12.5c-1.9,0.2-3.7,1.4-4.5,3.4l-0.8,2.1l-0.1-0.1
		c-1.8-2.4-5.2-2.9-7.6-1.1l-8,6c-0.6,0.5-1.2,1-1.6,1.6c-1.2,1.6-1.7,3.6-1.5,5.6H14.2z M40.3,54.9H26.9V50h13.4V54.9z M46.2,49.2
		l-0.3,0.4l-0.1,0.1l-0.1-0.1l-0.4-0.3l-2.2-1.7l-4.3-3.2l-1-0.7c-0.3-0.2-0.5-0.5-0.7-0.8v-0.1c0-0.1-0.1-0.2-0.1-0.2v-0.1v-0.1
		c0,0,0,0,0-0.1s0-0.2-0.1-0.3c-0.1-0.7,0.1-1.3,0.5-1.8c0.1-0.2,0.3-0.4,0.5-0.5l5.3-4l2.2-1.6l0,0l0.5-0.4l0.3,0.4l0.1,0.1l2.2,3
		l0.4,0.5l-0.5,0.4l-4.8,3.6l1.2,0.9l2.5,1.8l1.2,0.9l0.5,0.4l-0.4,0.5l-1.1,1.5L46.2,49.2z M57.4,40.4L57.4,40.4l-0.6,1.4v0.1
		l-0.2,0.5l0,0l-2.9,7.2l-0.8,2.1l-0.2,0.6L52.1,52l-3.5-1.4L48,50.4l0.2-0.6l0.1-0.2l0,0l0.1-0.2l0.4-1.1L49,48l0.1-0.3l0,0v-0.1
		v-0.1l0.1-0.4l0.1-0.2l0.1-0.1l0.2-0.4v-0.1l0.1-0.2V46l0.1-0.3l0,0l0.2-0.4v-0.1l0.1-0.3l0,0l0.2-0.5l0,0l0,0l0.3-0.7l0.1-0.1l0,0
		l0.3-0.7l0,0l0,0l0.1-0.1v-0.1l0.1-0.2v-0.1l0.1-0.1l0,0l0,0l0.1-0.2V42l0,0l0,0l0,0v-0.1l0,0v-0.1v-0.1l0,0v-0.1l0.1-0.2v-0.1
		l0.1-0.3v-0.1l0,0l0.1-0.1v-0.1l2.5-6.2l0.9-2.3l0.3-0.7l0.2-0.6l0.6,0.2l0.2,0.1l3.2,1.3l0.6,0.2L60,33.3l-0.5,1.2L57.4,40.4z
		 M71.3,42.1c-0.1,0.5-0.3,0.9-0.6,1.2c-0.1,0.2-0.3,0.3-0.4,0.4l-7.5,5.6l-0.5,0.4L62,49.2l-2-2.6v-0.1l-0.1-0.1l-0.1-0.2l-0.4-0.5
		l0.5-0.4l1.8-1.3l3-2.3L63,40.5l-0.1-0.1l-0.4-0.3l-2.6-1.9l-0.5-0.4l0.4-0.5l2.2-3l0.1-0.1l0.3-0.4l0.1,0.1l0.4,0.3l0,0l7.4,5.6
		c0.2,0.1,0.3,0.3,0.4,0.4l0.1,0.1C71.3,40.7,71.4,41.4,71.3,42.1z"/>
	
		<linearGradient id="SVGID_5_" gradientUnits="userSpaceOnUse" x1="26.9154" y1="13.6" x2="40.2926" y2="13.6" gradientTransform="matrix(1 0 0 -1 0 66)">
		<stop  offset="0" style="stop-color:#6C5E6A;stop-opacity:0.2"/>
		<stop  offset="1" style="stop-color:#923D88;stop-opacity:0"/>
	</linearGradient>
	<rect x="26.9" y="50" class="st5" width="13.4" height="4.8"/>
	
		<linearGradient id="SVGID_6_" gradientUnits="userSpaceOnUse" x1="11.7" y1="39.65" x2="55.4525" y2="39.65" gradientTransform="matrix(1 0 0 -1 0 66)">
		<stop  offset="0" style="stop-color:#6C5E6A;stop-opacity:0.2"/>
		<stop  offset="1" style="stop-color:#923D88;stop-opacity:0"/>
	</linearGradient>
	<path class="st6" d="M55.5,12.6v12.5c-1.9,0.2-3.7,1.4-4.5,3.4l-0.8,2.1l-0.1-0.1c-1.8-2.4-5.2-2.9-7.6-1.1l-8,6
		c-0.6,0.5-1.2,1-1.6,1.6c-1.2,1.6-1.7,3.6-1.5,5.6H14.2c-1.4,0-2.5-1.1-2.5-2.5V12.6c0-1.4,1.1-2.5,2.5-2.5H53
		C54.4,10.1,55.5,11.3,55.5,12.6z"/>
	<g>
		
			<linearGradient id="SVGID_7_" gradientUnits="userSpaceOnUse" x1="45.6383" y1="16.35" x2="45.8483" y2="16.35" gradientTransform="matrix(1 0 0 -1 0 66)">
			<stop  offset="0" style="stop-color:#FFFFFF"/>
			<stop  offset="1" style="stop-color:#000000"/>
		</linearGradient>
		<polygon class="st7" points="45.8,49.6 45.8,49.7 45.6,49.6 		"/>
	</g>
</g>
</svg>
