<?xml version="1.0" encoding="utf-8"?>
<!-- Generator: Adobe Illustrator 21.1.0, SVG Export Plug-In . SVG Version: 6.00 Build 0)  -->
<svg version="1.1" id="Layer_1" xmlns="http://www.w3.org/2000/svg" xmlns:xlink="http://www.w3.org/1999/xlink" x="0px" y="0px"
	 viewBox="0 0 50 40" style="enable-background:new 0 0 50 40;" xml:space="preserve">
<style type="text/css">
	.st0{fill:url(#SVGID_1_);}
	.st1{fill:url(#SVGID_2_);}
	.st2{fill:url(#SVGID_3_);}
	.st3{fill:#FFFFFF;}
	.st4{fill:url(#SVGID_4_);}
	.st5{fill:url(#SVGID_5_);}
	.st6{fill:url(#SVGID_6_);}
	.st7{fill:url(#SVGID_7_);}
</style>
<g>
	<g>
		
			<linearGradient id="SVGID_1_" gradientUnits="userSpaceOnUse" x1="19.9496" y1="707.6" x2="21.4769" y2="707.6" gradientTransform="matrix(1 0 0 1 0 -702)">
			<stop  offset="0" style="stop-color:#FFFFFF"/>
			<stop  offset="1" style="stop-color:#000000"/>
		</linearGradient>
		<path class="st0" d="M21.5,5.5c-0.2,0.2-0.5,0.2-0.8,0.2s-0.5-0.1-0.8-0.2H21.5z"/>
	</g>
	<g>
		
			<linearGradient id="SVGID_2_" gradientUnits="userSpaceOnUse" x1="19.4418" y1="706.46" x2="21.9848" y2="706.46" gradientTransform="matrix(1 0 0 1 0 -702)">
			<stop  offset="0" style="stop-color:#FFFFFF"/>
			<stop  offset="1" style="stop-color:#000000"/>
		</linearGradient>
		<path class="st1" d="M20.7,3.2c-0.7,0-1.3,0.5-1.3,1.3c0,0.4,0.2,0.8,0.5,1c0.2,0.2,0.5,0.2,0.8,0.2c0.3,0,0.5-0.1,0.8-0.2
			c0.3-0.2,0.5-0.6,0.5-1C22,3.7,21.4,3.2,20.7,3.2z"/>
	</g>
	
		<linearGradient id="SVGID_3_" gradientUnits="userSpaceOnUse" x1="27.9377" y1="732.26" x2="28.0637" y2="732.26" gradientTransform="matrix(1 0 0 1 0 -702)">
		<stop  offset="0" style="stop-color:#FFFFFF"/>
		<stop  offset="1" style="stop-color:#000000"/>
	</linearGradient>
	<path class="st2" d="M27.9,30.3L27.9,30.3H28H27.9z"/>
	<g>
		<path class="st3" d="M22,4.5c0,0.4-0.2,0.8-0.5,1c-0.2,0.2-0.5,0.2-0.8,0.2s-0.5-0.1-0.8-0.2c-0.3-0.2-0.5-0.6-0.5-1
			c0-0.7,0.5-1.3,1.3-1.3C21.4,3.2,22,3.7,22,4.5z"/>
	</g>
	
		<linearGradient id="SVGID_4_" gradientUnits="userSpaceOnUse" x1="3.3747" y1="722" x2="46.6253" y2="722" gradientTransform="matrix(1 0 0 1 0 -702)">
		<stop  offset="0" style="stop-color:#923D88"/>
		<stop  offset="1" style="stop-color:#6C5E6A"/>
	</linearGradient>
	<path class="st4" d="M45.7,22.7c-0.3-0.4-0.6-0.7-1-1l-4.8-3.6c-0.2-0.1-0.3-0.2-0.5-0.3c-0.4-0.4-0.8-0.7-1.3-1L38,16.8V8.1
		c0-3.1-2.5-5.7-5.7-5.7H9.1C6,2.4,3.4,4.9,3.4,8.1v16.5c0,3.1,2.6,5.7,5.7,5.7h3.4v5.3c0,1.1,1,2.1,2.1,2.1h12.2
		c1.1,0,2.1-1,2.1-2.1V34l2,0.8c0.4,0.2,0.8,0.2,1.2,0.2c0.4,0,0.9-0.1,1.3-0.2c0.8-0.4,1.4-1,1.7-1.8l0.3-0.7
		c0.7,0.8,1.6,1.2,2.5,1.2c0.7,0,1.4-0.2,1.9-0.7l4.8-3.6c1-0.8,1.7-1.9,1.9-3.1C46.8,24.9,46.5,23.7,45.7,22.7z M20.7,3.2
		c0.7,0,1.3,0.5,1.3,1.3c0,0.4-0.2,0.8-0.5,1c-0.2,0.2-0.5,0.2-0.8,0.2c-0.3,0-0.5-0.1-0.8-0.2c-0.3-0.2-0.5-0.6-0.5-1
		C19.5,3.7,20,3.2,20.7,3.2z M9.1,26.1c-0.8,0-1.5-0.7-1.5-1.5V8.1c0-0.8,0.7-1.5,1.5-1.5h23.3c0.8,0,1.5,0.7,1.5,1.5v7.5
		c-1.1,0.1-2.2,0.8-2.7,2l-0.5,1.3l-0.1-0.1c-1.1-1.4-3.1-1.7-4.6-0.7l-4.8,3.6c-0.4,0.3-0.7,0.6-1,1c-0.7,1-1,2.2-0.9,3.4H9.1z
		 M24.7,33.4h-8v-2.9h8V33.4z M28.3,30l-0.2,0.2L28,30.3L28,30.3l-0.2-0.2l-1.3-1l-2.6-1.9l-0.6-0.4c-0.2-0.1-0.3-0.3-0.4-0.5v-0.1
		c0-0.1-0.1-0.1-0.1-0.1V26v-0.1c0,0,0,0,0-0.1s0-0.1-0.1-0.2c-0.1-0.4,0.1-0.8,0.3-1.1c0.1-0.1,0.2-0.2,0.3-0.3l3.2-2.4l1.3-1l0,0
		l0.3-0.2l0.2,0.2l0.1,0.1l1.3,1.8l0.2,0.3l-0.3,0.2l-2.9,2.2l0.7,0.5l1.5,1.1l0.7,0.5l0.3,0.2l-0.2,0.3l-0.7,0.9L28.3,30z M35,24.7
		L35,24.7l-0.4,0.8v0.1l-0.1,0.3l0,0l-1.7,4.3l-0.5,1.3l-0.1,0.4l-0.4-0.2l-2.1-0.8l-0.4-0.1l0.1-0.4l0.1-0.1l0,0l0.1-0.1l0.2-0.7
		l0.1-0.2l0.1-0.2l0,0v-0.1V29l0.1-0.2l0.1-0.1l0.1-0.1l0.1-0.2v-0.1l0.1-0.1v-0.1l0.1-0.2l0,0l0.1-0.2v-0.1l0.1-0.2l0,0l0.1-0.3
		l0,0l0,0l0.2-0.4l0.1-0.1l0,0l0.2-0.4l0,0l0,0l0.1-0.1v-0.1l0.1-0.1v-0.1l0.1-0.1l0,0l0,0l0.1-0.1v-0.1l0,0l0,0l0,0v-0.1l0,0v-0.1
		v-0.1l0,0v-0.1l0.1-0.1v-0.1l0.1-0.2V25l0,0l0.1-0.1v-0.1l1.5-3.7l0.5-1.4l0.2-0.4l0.1-0.4l0.4,0.1l0.1,0.1l1.9,0.8l0.4,0.1
		l-0.1,0.4l-0.3,0.7L35,24.7z M43.3,25.8c-0.1,0.3-0.2,0.5-0.4,0.7c-0.1,0.1-0.2,0.2-0.2,0.2l-4.5,3.4l-0.3,0.2L37.8,30l-1.2-1.6
		v-0.1l-0.1-0.1l-0.1-0.1l-0.2-0.3l0.3-0.2l1.1-0.8l1.8-1.4l-1-0.7l-0.1-0.1l-0.2-0.2l-1.6-1.1l-0.3-0.2l0.2-0.3l1.3-1.8l0.1-0.1
		l0.2-0.2l0.1,0.1l0.2,0.2l0,0l4.4,3.4c0.1,0.1,0.2,0.2,0.2,0.2l0.1,0.1C43.3,24.9,43.4,25.3,43.3,25.8z"/>
	
		<linearGradient id="SVGID_5_" gradientUnits="userSpaceOnUse" x1="16.7039" y1="733.94" x2="24.7302" y2="733.94" gradientTransform="matrix(1 0 0 1 0 -702)">
		<stop  offset="0" style="stop-color:#6C5E6A;stop-opacity:0.2"/>
		<stop  offset="1" style="stop-color:#923D88;stop-opacity:0"/>
	</linearGradient>
	<rect x="16.7" y="30.5" class="st5" width="8" height="2.9"/>
	
		<linearGradient id="SVGID_6_" gradientUnits="userSpaceOnUse" x1="7.5747" y1="718.31" x2="33.8262" y2="718.31" gradientTransform="matrix(1 0 0 1 0 -702)">
		<stop  offset="0" style="stop-color:#6C5E6A;stop-opacity:0.2"/>
		<stop  offset="1" style="stop-color:#923D88;stop-opacity:0"/>
	</linearGradient>
	<path class="st6" d="M33.9,8.1v7.5c-1.1,0.1-2.2,0.8-2.7,2l-0.5,1.3l-0.1-0.1c-1.1-1.4-3.1-1.7-4.6-0.7l-4.8,3.6
		c-0.4,0.3-0.7,0.6-1,1c-0.7,1-1,2.2-0.9,3.4H9.1c-0.8,0-1.5-0.7-1.5-1.5V8.1c0-0.8,0.7-1.5,1.5-1.5h23.3
		C33.2,6.6,33.9,7.3,33.9,8.1z"/>
	<g>
		
			<linearGradient id="SVGID_7_" gradientUnits="userSpaceOnUse" x1="27.9377" y1="732.29" x2="28.0637" y2="732.29" gradientTransform="matrix(1 0 0 1 0 -702)">
			<stop  offset="0" style="stop-color:#FFFFFF"/>
			<stop  offset="1" style="stop-color:#000000"/>
		</linearGradient>
		<polygon class="st7" points="28,30.3 28,30.3 27.9,30.3 		"/>
	</g>
</g>
</svg>
